<?xml version="1.0" encoding="UTF-8" standalone="no"?>
<!-- Created with Inkscape (http://www.inkscape.org/) -->

<svg
   xmlns:dc="http://purl.org/dc/elements/1.1/"
   xmlns:cc="http://creativecommons.org/ns#"
   xmlns:rdf="http://www.w3.org/1999/02/22-rdf-syntax-ns#"
   xmlns:svg="http://www.w3.org/2000/svg"
   xmlns="http://www.w3.org/2000/svg"
   xmlns:sodipodi="http://sodipodi.sourceforge.net/DTD/sodipodi-0.dtd"
   xmlns:inkscape="http://www.inkscape.org/namespaces/inkscape"
   width="1024"
   height="240"
   viewBox="0 0 270.93333 63.5"
   version="1.1"
   id="svg8"
   inkscape:version="0.92.5 (2060ec1f9f, 2020-04-08)"
   sodipodi:docname="waves.svg">
  <defs
     id="defs2" />
  <sodipodi:namedview
     id="base"
     pagecolor="#ffffff"
     bordercolor="#666666"
     borderopacity="1.0"
     inkscape:pageopacity="0.0"
     inkscape:pageshadow="2"
     inkscape:zoom="0.7"
     inkscape:cx="739.99983"
     inkscape:cy="370.50927"
     inkscape:document-units="mm"
     inkscape:current-layer="layer1"
     showgrid="false"
     units="px"
     width="1024px"
     inkscape:window-width="1848"
     inkscape:window-height="1016"
     inkscape:window-x="1438"
     inkscape:window-y="27"
     inkscape:window-maximized="1" />
  <metadata
     id="metadata5">
    <rdf:RDF>
      <cc:Work
         rdf:about="">
        <dc:format>image/svg+xml</dc:format>
        <dc:type
           rdf:resource="http://purl.org/dc/dcmitype/StillImage" />
        <dc:title></dc:title>
      </cc:Work>
    </rdf:RDF>
  </metadata>
  <g
     inkscape:label="Ebene 1"
     inkscape:groupmode="layer"
     id="layer1"
     transform="translate(0,-233.5)">
    <path
       style="fill:#008080;stroke:none;stroke-width:0.26458332;stroke-opacity:1"
       id="path4530"
       d="m -24.033956,266.20711 c 0.184493,0.32305 0.327018,0.71951 0.615005,0.96925 0.07219,0.0626 0.160431,0.10446 0.234785,0.16448 0.145819,0.11771 0.283302,0.24538 0.424953,0.36808 0.19684,0.15886 0.386559,0.32698 0.590519,0.47659 0.639968,0.46944 1.327177,0.87634 1.970604,1.34202 0.22144,0.16027 0.765727,0.5863 0.994932,0.76457 0.1534,0.19977 0.310921,0.39645 0.460201,0.59932 0.173751,0.23613 0.334333,0.48178 0.50872,0.71744 0.655396,0.88568 1.371018,1.72812 2.073492,2.57639 0.698408,0.87027 1.439067,1.70141 2.208512,2.50849 0.442469,0.37473 0.800504,0.85241 1.26933,1.19779 0.09425,0.0694 0.61377,0.35494 0.70402,0.40531 0.750518,0.38102 1.484515,0.78535 2.2358026,1.16346 0.6144667,0.33025 1.307457,0.5145 1.9957978,0.61518 0.5809827,0.0666 1.1664084,0.0343 1.7495781,0.04 0.7902904,-0.005 1.5791291,0.0511 2.3680145,-0.003 1.2082004,-0.23844 2.4045088,-0.51576 3.59830376,-0.82032 1.15451134,-0.40042 2.33492574,-0.69881 3.52455314,-0.97359 0.9142584,-0.20792 1.8493908,-0.37866 2.7302945,-0.71003 0.5683087,-0.21379 0.7786014,-0.34739 1.3141841,-0.63149 0.110421,-0.05 1.1387054,-0.51356 1.2644464,-0.57957 0.1886767,-0.099 0.7348344,-0.43185 0.5499517,-0.3259 -19.3821486,11.10768 -13.4896133,8.03726 -9.80757451,5.57528 1.13606434,-0.81196 1.94786401,-1.95721 2.85669641,-2.99693 3.5458189,-3.82984 7.9354155,-5.09388 13.0145345,-8.01712 0.220144,-0.1267 0.90079,-0.46921 0.680905,-0.34206 -3.4061,1.96958 -13.6487825,7.836 -10.2402766,5.87058 0.8195727,-0.51111 1.4139134,-1.27996 2.0644518,-1.97727 0.7201117,-0.79765 1.2431874,-1.74773 1.7378281,-2.69529 0.315695,-0.75034 0.8242587,-1.38529 1.2296347,-2.08312 0.33904,-0.53075 0.678773,-1.07408 0.788971,-1.70226 1.860942,-1.65111 10.26219,-10.96041 12.538168,-5.81158 0.177424,0.40138 0.295098,0.85385 0.44555,1.26659 0.307012,0.88001 0.908934,1.59662 1.358789,2.39882 0.222687,0.3971 0.602435,1.2064 0.800529,1.61991 0.606221,1.28867 1.186251,2.59022 1.90093,3.82359 0.392782,0.82678 0.931114,1.56525 1.477254,2.29479 0.333176,0.41513 0.628465,0.88051 1.017066,1.2493 0.04799,0.0455 0.387842,0.28756 0.436915,0.32291 0.170404,0.088 0.312666,0.22204 0.480475,0.31391 0.07534,0.0412 0.162507,0.0582 0.237254,0.10048 0.09923,0.0562 0.183859,0.13558 0.282118,0.19343 0.216564,0.1275 0.284937,0.1329 0.520221,0.20329 0.156294,0.0626 0.396396,0.1728 0.570529,0.19018 0.08933,0.009 0.179033,-0.0138 0.268679,-0.0186 0.34359,-0.0184 0.688118,-0.025 1.032004,-0.0355 0.700395,-0.002 1.388978,-0.0743 2.073715,-0.21762 0.683207,-0.24285 1.386488,-0.47646 2.093089,-0.64567 0.719918,-0.17239 1.221865,-0.21965 1.969447,-0.32181 1.149123,-0.22221 2.340007,-0.24425 3.47861,-0.52739 0.370647,-0.0922 0.727855,-0.23199 1.089057,-0.35612 1.426085,-0.49007 1.162735,-0.41274 2.651167,-1.05847 1.605698,-0.74807 3.145755,-1.62415 4.715991,-2.44184 0.481878,-0.25094 0.971635,-0.48689 1.449076,-0.74617 0.499324,-0.27117 1.913464,-1.10842 2.434597,-1.41504 -18.303141,10.83417 -10.216379,6.21498 -6.418698,3.18591 1.202258,-0.9759 2.144043,-2.21184 3.133785,-3.39043 1.174488,-1.42521 2.30822,-2.8832 3.52606,-4.2722 3.427367,-3.89002 4.841507,-3.38276 12.500234,-7.64073 0.175821,-0.0977 0.779748,0.16301 0.892538,0.23864 0.178427,0.11966 0.319709,0.28706 0.479562,0.43059 0.149844,0.24738 0.316487,0.48533 0.449533,0.74213 0.180684,0.34875 0.864475,1.97364 0.967152,2.21622 0.770243,1.81981 1.47946,3.66237 2.238704,5.48696 0.910694,2.12269 2.015148,4.14875 3.168902,6.14628 0.657227,1.13787 1.362764,2.35779 2.096888,3.45278 0.31215,0.46558 0.652897,0.91132 0.979344,1.36698 1.058544,1.39606 2.043381,2.85493 3.216302,4.16059 0.36002,0.40076 0.854057,0.88738 1.239624,1.27405 0.730387,0.6438 1.461281,1.16993 2.438655,1.30928 0.640317,0.0377 1.281794,-0.01 1.922711,-0.0105 1.662391,0.16485 3.304079,-0.18414 4.92881,-0.49531 1.652541,-0.26614 3.260082,-0.74054 4.876303,-1.16355 1.730617,-0.45296 1.991167,-0.47734 3.693277,-1.03869 0.61538,-0.20295 1.2214,-0.43326 1.83209,-0.64989 0.61393,-0.25263 1.23606,-0.48618 1.84178,-0.75789 1.86602,-0.83704 3.66646,-1.82975 5.46828,-2.79358 2.98864,-1.59869 0.69638,-0.35937 3.66303,-1.97147 5.38781,-3.14744 -1.49372,0.87954 -6.96984,3.96784 -0.49052,0.27663 0.96003,-0.58902 1.43965,-0.88416 1.2574,-0.77375 2.5125,-1.55104 3.76487,-2.33291 2.45334,-1.4862 4.71337,-3.25561 7.10144,-4.83942 1.61471,-1.02255 3.2308,-2.03859 4.79467,-3.13806 4.38658,-3.12469 8.71103,-8.372 14.22436,-8.28118 0.13768,0.0464 0.2847,0.0711 0.41304,0.13923 0.87717,0.46533 1.41245,2.06626 1.76187,2.92099 0.78497,1.58147 1.44503,3.22126 2.21734,4.80843 0.6815,1.40055 0.8968,1.74279 1.67356,3.14506 1.5618,2.45567 3.21801,4.85053 5.03067,7.12846 0.65784,0.82669 2.00723,2.42991 2.69969,3.25756 1.62087,1.89756 3.41154,3.65783 5.44996,5.1031 0.72877,0.48755 1.25657,0.79049 2.13505,0.75344 0.33024,-0.0555 0.68272,0.004 1.00197,-0.11451 0.13443,-0.0498 0.51908,-0.26997 0.62505,-0.32866 1.76375,0.60306 3.66477,0.51043 5.44506,0.003 0.42991,-0.12261 0.84121,-0.30294 1.26181,-0.45442 0.39591,-0.19237 0.80036,-0.36806 1.18772,-0.5771 0.38345,-0.20693 1.50181,-0.88421 1.12258,-0.66967 -3.24352,1.83502 -6.44827,3.73915 -9.71572,5.53121 -0.39419,0.21619 0.73471,-0.51918 1.08688,-0.79866 0.89914,-0.71355 1.22637,-1.06536 2.05112,-1.8579 2.15739,-2.15426 4.4465,-4.16668 6.58851,-6.33699 1.28116,-1.2699 2.49429,-2.60336 3.70728,-3.93742 0.48343,-0.50982 0.87734,-1.1021 1.36708,-1.60562 0.20613,-0.21193 0.42765,-0.40836 0.63882,-0.61526 0.65986,-0.67092 1.3337,-1.34282 2.10531,-1.88437 0.97598,-0.63557 1.94255,-1.2885 2.86863,-1.9949 4.20679,-3.39222 9.12729,-5.62958 13.82513,-8.34129 0.1478,0.0555 0.32986,0.0568 0.44341,0.16646 0.28079,0.27126 1.05003,1.52763 1.25892,1.83241 0.87741,1.28026 1.84236,2.49527 2.80587,3.71065 1.31522,1.54217 2.86073,2.85975 4.27185,4.30947 0.61445,0.63126 1.04528,1.11841 1.63077,1.76547 0.72181,0.93448 1.61593,1.71928 2.33867,2.65145 0.15598,0.20118 0.79388,1.10845 0.9445,1.32154 0.61771,0.80983 1.36956,1.52003 2.18845,2.12526 0.0303,0.0224 1.24826,0.84528 1.29348,0.87585 0.97172,0.51605 1.89874,1.10344 2.82697,1.69225 0.75676,0.55645 1.17517,0.81495 2.11565,0.647 0.11395,-0.0325 0.23406,-0.0483 0.34184,-0.0976 0.10095,-0.0461 0.71548,-0.46741 0.76252,-0.49951 0.1813,-0.12378 0.73306,-0.48237 0.54253,-0.37334 -3.47298,1.98732 -13.87788,7.97337 -10.39171,6.00927 4.00895,-2.25862 7.97343,-4.59528 11.96015,-6.89293 -19.60657,11.49384 -7.65865,4.45226 -3.23974,1.59918 1.68715,-1.08122 3.26659,-2.31626 4.90392,-3.46848 0.8012,-0.56381 1.2539,-0.85196 2.07633,-1.39268 2.14568,-1.41298 4.34974,-2.74171 6.38232,-4.3191 0.34877,-0.27066 0.68454,-0.55767 1.02681,-0.8365 0.9889,-0.88153 1.96003,-1.79201 2.8221,-2.80034 0.15514,-0.18145 0.85984,-1.06601 1.02288,-1.26998 0.9284,-1.07848 1.78208,-2.21625 2.66777,-3.32899 2.98347,-4.21319 3.61683,-3.14909 12.60338,-7.13952 0.29678,-0.13179 0.42426,0.49409 0.60253,0.76553 0.29787,0.45359 0.86355,1.65918 1.07257,2.08747 0.36103,0.79587 1.11765,2.53206 1.57149,3.22963 0.68136,1.04732 1.79504,2.1378 2.68013,2.99419 4.73678,4.58323 -1.59729,-1.70577 3.20995,3.09625 2.00279,2.08951 3.87122,4.30112 5.81837,6.44135 1.1098,1.21985 1.54392,1.66944 2.66465,2.85727 0.19764,0.21109 2.14881,2.38003 2.54359,2.48037 0.3836,0.0975 1.40931,-0.72121 1.05797,-0.53897 -3.36857,1.74735 -6.64575,3.68468 -10.10973,5.23433 -0.46657,0.20872 0.6736,-0.76904 1.00264,-1.16018 0.30765,-0.36571 0.60481,-0.7401 0.9072,-1.11014 4.16817,-3.78481 2.35498,-2.27498 12.97924,-7.43186 0.39256,-0.19055 0.87522,0.023 1.30564,0.0947 1.14927,0.19136 2.44361,0.73082 3.54121,1.13517 1.53996,0.5795 3.08327,1.17848 4.69773,1.51603 0.48506,0.0451 1.38562,0.243 1.84904,0.0444 0.0928,-0.0397 0.16878,-0.11065 0.25315,-0.16598 2.62472,-3.85131 0.25451,-0.28177 -10.97121,6.16078 -0.13957,0.0801 0.27705,-0.16698 0.39844,-0.27262 0.55933,-0.48675 0.97885,-1.12715 1.40062,-1.72743 1.09895,-1.66078 2.01486,-3.46206 2.72024,-5.32592 0.19439,-0.5136 0.35073,-1.0408 0.52612,-1.56119 0.89403,-3.13089 1.08318,-6.38976 1.13326,-9.62685 -0.0864,-2.00297 -0.11699,-4.00758 -0.20357,-6.01056 -0.0312,-0.62107 -0.0728,-1.2413 -0.12385,-1.86101 0,0 11.84352,-6.04196 11.84352,-6.04196 v 0 c -0.044,0.65934 -0.0794,1.31903 -0.10507,1.97937 -0.0715,2.11318 -0.0921,4.22864 -0.31279,6.33386 -0.20571,3.33167 -0.43537,6.6707 -1.12471,9.94487 -0.28853,1.28952 -0.35084,1.72236 -0.75065,2.94612 -0.44522,1.3627 -1.04595,2.67769 -1.65024,3.97479 -0.35351,0.59713 -0.69712,1.19926 -1.04611,1.79877 -0.0859,0.14753 -0.10191,0.35901 -0.24733,0.44843 -11.39536,7.00752 -7.25858,6.72486 -12.2346,6.98473 -0.80039,-0.0598 -1.58424,-0.22004 -2.32767,-0.5322 -1.45341,-0.58308 -2.84588,-1.30606 -4.30585,-1.8744 -1.02989,-0.37828 -2.08354,-0.80587 -3.20646,-0.76901 -0.36608,0.012 -1.39102,0.37677 -1.08458,0.17617 4.89701,-3.20562 13.64599,-7.98022 8.54342,-5.18403 -0.33068,0.34778 -0.69466,0.66666 -0.99198,1.04336 -0.30099,0.38137 -0.38957,0.95423 -0.79539,1.22134 -3.86606,2.54468 -7.77975,5.04852 -11.90839,7.14044 -0.35309,0.17891 -0.72633,-0.33436 -1.03497,-0.58222 -0.6967,-0.55954 -1.89307,-1.98223 -2.4706,-2.64013 -1.76736,-2.04687 -3.52211,-4.10467 -5.28532,-6.1551 -0.46558,-0.54143 -0.9154,-1.09652 -1.38938,-1.63063 -0.48736,-0.54923 -0.99607,-1.07918 -1.4941,-1.61876 -0.53877,-0.51684 -1.06762,-1.04422 -1.61631,-1.55053 -1.2128,-1.11915 -2.14397,-1.82567 -3.28412,-3.02021 -1.39316,-1.45966 -1.38006,-1.62696 -2.52518,-3.20597 -0.31559,-0.4352 -0.64265,-0.862 -0.96396,-1.293 -0.27183,-0.31167 -0.93641,-1.1793 -1.4093,-1.41011 -0.0811,-0.0396 -0.34007,0.11415 -0.26167,0.0694 3.77238,-2.15377 7.58616,-4.23469 11.35142,-6.40087 0.1306,-0.0751 -0.30091,0.0532 -0.43553,0.12088 -0.15772,0.0793 -0.28485,0.20856 -0.42728,0.31284 -0.97623,1.23094 0.22043,-0.25228 -0.86426,1.00646 -0.67977,0.78881 -1.24799,1.67119 -1.98292,2.41348 -1.31016,1.59444 -2.60178,3.22041 -4.23402,4.50526 -0.37079,0.3118 -0.73351,0.63347 -1.11239,0.9354 -1.95934,1.56148 -4.07458,2.90782 -6.14878,4.30685 -1.12535,0.74852 -2.2913,1.43695 -3.39959,2.21076 -1.29734,0.9058 -2.53983,1.89149 -3.86348,2.76065 -1.68399,1.14162 -3.41674,2.19681 -5.13802,3.2801 -0.37362,0.23513 -0.72985,0.49801 -1.11049,0.72158 -3.97417,2.3342 -7.96845,4.634 -11.95267,6.951 3.37289,-1.94476 13.46331,-7.82721 10.11866,-5.83428 -3.94605,2.35127 -7.93993,4.62144 -11.92302,6.90941 -0.40017,0.22987 -0.91099,0.46646 -1.37349,0.55523 -0.33909,0.0651 -0.66468,0.0167 -1.00182,-0.0115 -0.34542,-0.0856 -0.53463,-0.11582 -0.86108,-0.26369 -0.56834,-0.25744 -1.04047,-0.67706 -1.56702,-1.0035 -0.89795,-0.60694 -1.80791,-1.19894 -2.65105,-1.88235 -1.30774,-1.02714 -2.6981,-1.96773 -3.64222,-3.37252 -0.16787,-0.21884 -0.33575,-0.43768 -0.50362,-0.65652 -0.1404,-0.20038 -0.27423,-0.40554 -0.42121,-0.60115 -0.69891,-0.93016 -1.47199,-1.80612 -2.09035,-2.7966 -0.71765,-0.97035 -1.44937,-1.93121 -2.2526,-2.83363 -1.05533,-1.18565 -2.21654,-2.27451 -3.2348,-3.49421 -0.78348,-0.9325 -1.26617,-1.55635 -2.13984,-2.403 -0.25223,-0.24444 -1.44877,-1.33758 -1.92078,-1.51255 -0.31427,-0.1165 -0.37061,0.1824 -0.435,0.34425 3.74524,-2.17224 7.49311,-4.33992 11.23571,-6.5167 0.12286,-0.0715 -0.25666,0.12382 -0.37627,0.20061 -0.14037,0.0901 -0.26369,0.2047 -0.40149,0.29868 -0.50135,0.34191 -1.02953,0.64671 -1.52118,1.00383 -0.32935,0.27102 -0.63928,0.56564 -0.97573,0.82778 -0.14553,0.11339 -0.30834,0.20288 -0.45762,0.31127 -0.40948,0.29734 -0.80136,0.61998 -1.22536,0.89796 -0.13358,0.0821 -0.26385,0.16983 -0.40074,0.24628 -0.13295,0.0743 -0.28076,0.12182 -0.40804,0.20541 -0.12822,0.0842 -0.2339,0.19858 -0.35345,0.2947 -0.34967,0.28114 -0.69423,0.56434 -1.02483,0.86859 -0.0214,0.0224 -0.60033,0.62925 -0.62289,0.65014 -0.30539,0.28286 -0.46181,0.34368 -0.76428,0.64704 -0.30529,0.30619 -0.54168,0.67708 -0.87641,0.95628 -0.86434,0.99205 -0.11974,0.16447 -1.07698,1.14903 -1.04632,1.07618 -2.0932,2.1465 -3.2292,3.13114 -0.0926,0.0886 -2.23978,2.14287 -2.29014,2.19221 -0.37929,0.37169 -0.74512,0.75697 -1.12464,1.12844 -3.03218,2.96794 0.84148,-0.8631 -2.12063,1.98155 -0.33748,0.3241 -0.65905,0.66437 -0.98857,0.99655 -0.72884,0.75842 -1.18447,1.25555 -1.95688,1.96822 -0.3256,0.30041 -0.62253,0.64382 -1.00062,0.87471 -3.90756,2.38626 -7.87555,4.67246 -11.83837,6.96578 -0.38302,0.22165 -0.78776,0.40532 -1.19559,0.57708 -0.40447,0.17034 -0.82541,0.29857 -1.23812,0.44786 -1.22529,0.30493 -1.48036,0.41227 -2.7494,0.54872 -1.23875,0.1332 -1.44604,0.049 -2.68197,0.10727 -0.40105,0.0189 -0.80617,0.02 -1.20083,0.0938 -0.24891,0.0465 -0.4749,0.17594 -0.71236,0.26391 -0.7529,0.15341 -1.42878,0.16851 -2.17043,-0.0446 -0.84972,-0.33507 -1.52824,-0.92621 -2.16289,-1.57475 -1.69321,-1.83211 -3.08692,-3.90899 -4.55705,-5.91818 -2.5696,-3.5252 -5.30015,-6.92695 -7.88643,-10.43964 -0.37278,-0.53346 -0.76094,-1.05649 -1.11834,-1.60037 -0.87076,-1.32514 -0.88233,-1.49076 -1.65545,-2.81476 -0.62263,-1.06627 -1.29306,-2.10496 -1.94428,-3.15372 -0.14679,-0.2102 -1.01094,-1.63318 -1.40203,-1.52668 -0.1077,0.0293 -0.1388,0.20424 -0.25916,0.21205 -3.47703,2.88883 -0.295,0.226 10.83331,-6.24574 0.15769,-0.0917 -0.32198,0.17251 -0.47459,0.27244 -0.61691,0.40397 -1.18571,0.88494 -1.7936,1.30182 -1.67194,1.20853 -3.36638,2.38326 -5.19152,3.35376 -0.10063,0.064 -2.33132,1.48089 -2.40295,1.52985 -1.60051,1.09412 -3.0611,2.39257 -4.75178,3.35533 -6.28182,3.90388 -12.7014,7.58812 -19.13892,11.2259 -3.64223,1.94769 -7.254567,4.0045 -11.149703,5.41441 -0.632747,0.21132 -1.261084,0.43631 -1.898231,0.63396 -1.059814,0.32877 -2.667945,0.74588 -3.735559,1.04056 -1.751048,0.48332 -3.495999,0.99374 -5.27493,1.36877 -1.930678,0.42183 -3.872666,0.83232 -5.857937,0.85533 -0.736364,-0.002 -1.489901,-0.0412 -2.170418,-0.35102 -0.993294,-0.50048 -1.816158,-1.23433 -2.469235,-2.13696 -1.39777,-1.92382 -2.691548,-3.92695 -3.853365,-6.00201 -0.279009,-0.50567 -0.568537,-1.00566 -0.83702,-1.51699 -0.628867,-1.19768 -1.199745,-2.42508 -1.820971,-3.62674 -1.068499,-2.06684 -2.197288,-4.10263 -3.258905,-6.17316 -0.917321,-1.69736 -1.771986,-3.42438 -2.890078,-5.00198 -0.361815,-0.51052 -0.920811,-1.25153 -1.416386,-1.69287 -0.0991,-0.0883 -0.228386,-0.13518 -0.342577,-0.20277 -0.257715,0.0585 -0.222248,0.0209 -0.434859,0.18914 -0.07397,0.0585 -0.291584,0.23704 -0.209965,0.18974 3.710858,-2.15037 7.405028,-4.32943 11.102922,-6.50202 0.161306,-0.0948 -0.34027,0.16025 -0.492914,0.26842 -0.190005,0.13464 -0.352872,0.30397 -0.529307,0.45596 -1.361424,1.2591 -2.603947,2.66076 -3.631647,4.20689 -0.990105,1.18921 -1.865476,2.47719 -2.970569,3.56609 -4.548031,4.05704 -10.598182,6.40214 -15.533476,9.66179 -1.190069,0.64962 -2.394582,1.26164 -3.603106,1.87606 -0.62643,0.31847 -2.495592,1.2873 -3.088352,1.57739 -0.557485,0.27282 -1.122899,0.52914 -1.68435,0.79371 -1.169506,0.49724 -1.940844,0.8723 -3.141486,1.21848 -1.512019,0.43595 -3.109552,0.45934 -4.635288,0.83197 -1.494094,0.39613 -0.796827,0.18632 -2.160593,0.63737 -0.660304,0.21839 -1.332859,0.4811 -2.015291,0.62632 -0.159028,0.0338 -0.322067,0.0449 -0.4831,0.0673 -0.735127,0.0722 -1.469742,0.092 -2.208284,0.0554 -0.802913,-0.0356 -1.507932,-0.16105 -2.223117,-0.55259 -0.610719,-0.33174 -1.214183,-0.68362 -1.742048,-1.14013 -0.584459,-0.56487 -1.026734,-1.2389 -1.504794,-1.89274 -0.594577,-0.79545 -1.129538,-1.6327 -1.508911,-2.55487 -0.563231,-1.32486 -1.098693,-2.66155 -1.678196,-3.97932 -0.314801,-0.67323 -0.354896,-0.81544 -0.751483,-1.44124 -0.528973,-0.83471 -1.209688,-1.56411 -1.702213,-2.42476 -0.05803,-0.10261 -0.474027,-0.93145 -0.568978,-0.99833 -0.03553,-0.025 0.0094,0.0876 0.02598,0.12776 0.04919,0.11916 0.05692,0.40898 0.17013,0.34731 3.920254,-2.1355 7.714024,-4.49542 11.571036,-6.74313 -0.07265,0.006 -0.15394,-0.0169 -0.217948,0.0179 -0.363302,0.19799 -0.5797,1.15162 -0.83661,1.48196 -0.210249,0.33512 -0.376539,0.70699 -0.604422,1.02978 -0.251667,0.35647 -0.579787,0.66395 -0.774991,1.06222 -0.558216,0.96111 -1.039892,1.96337 -1.623036,2.91049 -0.102087,0.14088 -0.196596,0.28758 -0.306264,0.42265 -0.198297,0.24422 -0.43458,0.45577 -0.634306,0.69883 -0.342731,0.41709 -0.661707,0.8531 -1.067737,1.2159 -3.954663,3.34008 -0.387916,0.37705 -12.3189626,7.20411 -0.2047747,0.11717 -0.8276374,0.45315 -0.6241997,0.33367 3.4865132,-2.04771 6.9909343,-4.06489 10.4738983,-6.11864 0.437698,-0.25809 -1.857684,0.89225 -1.242464,0.88318 -0.172689,0.17357 -0.354058,0.33892 -0.518065,0.52072 -0.746869,0.82787 -1.295466,1.82234 -2.112206,2.58812 -0.274333,0.26161 -0.603358,0.60599 -0.935463,0.79982 -4.7106766,2.74936 -8.8105755,5.58135 -13.6444573,7.62391 -1.3845804,0.52201 -2.8201095,0.84536 -4.2522416,1.2085 -1.1660154,0.31781 -2.3198448,0.6821 -3.5005431,0.9435 -1.278431,0.29946 -2.561746,0.64886 -3.879188,0.70915 -0.855805,0.0226 -1.711963,0.0518 -2.568152,0.0404 -0.641716,-0.0181 -1.281678,-0.0961 -1.895527,-0.29288 -0.743029,-0.23984 -1.470643,-0.5159 -2.139878,-0.92518 -0.753714,-0.41791 -1.523634,-0.80815 -2.252902,-1.26829 -0.800367,-0.55024 -1.510901,-1.18724 -2.130237,-1.93844 -0.74731,-0.86429 -1.480517,-1.74298 -2.085964,-2.71545 -0.896144,-1.28212 -1.76824,-2.61433 -3.028517,-3.57483 -1.030637,-0.98117 -2.145274,-1.8685 -3.433667,-2.49286 -0.459162,-0.25643 -0.68985,-0.34423 -1.065844,-0.70264 -0.316963,-0.30214 -0.487281,-0.73948 -0.83427,-1.01703 0,0 11.773883,-6.89913 11.773883,-6.89913 z"
       inkscape:connector-curvature="0" />
    <path
       style="fill:#00b5b5;fill-opacity:1;stroke:none;stroke-width:0.26458332;stroke-opacity:1"
       id="path4530-3"
       d="m -17.594973,259.11548 c 0.184492,0.32305 0.327018,0.71951 0.615005,0.96925 0.07219,0.0626 0.160431,0.10446 0.234785,0.16448 0.145819,0.11771 0.283302,0.24538 0.424953,0.36808 0.196839,0.15886 0.386558,0.32698 0.590518,0.47659 0.639968,0.46944 1.327176,0.87634 1.970604,1.34202 0.221439,0.16027 0.765726,0.5863 0.994931,0.76457 0.1534,0.19977 0.310921,0.39645 0.4602,0.59932 0.173752,0.23613 0.334333,0.48178 0.50872,0.71744 0.655396,0.88568 1.371017,1.72812 2.0734906,2.57639 0.6984073,0.87027 1.4390661,1.70141 2.2085108,2.50849 0.4424687,0.37473 0.8005034,0.85241 1.2693291,1.19779 0.09425,0.0694 0.6137697,0.35494 0.7040197,0.40531 0.7505173,0.38102 1.4845141,0.78535 2.2358018,1.16346 0.6144673,0.33025 1.3074561,0.5145 1.9957988,0.61518 0.58098162,0.0666 1.16640629,0.0343 1.74957696,0.04 0.79029134,-0.005 1.57913004,0.0511 2.36801444,-0.003 1.2082004,-0.23844 2.4045078,-0.51576 3.5983049,-0.82032 1.1545114,-0.40042 2.3349248,-0.69881 3.5245522,-0.97359 0.9142597,-0.20792 1.8493917,-0.37866 2.7302957,-0.71003 0.568309,-0.21379 0.778603,-0.34739 1.314186,-0.63149 0.110421,-0.05 1.138705,-0.51356 1.264446,-0.57957 0.188677,-0.099 0.734835,-0.43185 0.549952,-0.3259 -19.382152,11.10768 -13.4896145,8.03726 -9.8075776,5.57528 1.1360644,-0.81196 1.9478638,-1.95721 2.8566965,-2.99693 3.5458211,-3.82984 7.9354201,-5.09388 13.0145391,-8.01712 0.220144,-0.1267 0.90079,-0.46921 0.680905,-0.34206 -3.4061,1.96958 -13.6487871,7.836 -10.24028,5.87058 0.819573,-0.51111 1.413915,-1.27996 2.064454,-1.97727 0.720111,-0.79765 1.243187,-1.74773 1.737828,-2.69529 0.315696,-0.75034 0.824259,-1.38529 1.229635,-2.08312 0.33904,-0.53075 0.678773,-1.07408 0.788972,-1.70226 1.860942,-1.65111 10.26219,-10.96041 12.538168,-5.81158 0.177424,0.40138 0.295097,0.85385 0.44555,1.26659 0.307012,0.88001 0.908934,1.59662 1.358789,2.39882 0.222686,0.3971 0.602435,1.2064 0.800528,1.61991 0.606222,1.28867 1.186252,2.59022 1.900931,3.82359 0.392782,0.82678 0.931114,1.56525 1.477254,2.29479 0.333176,0.41513 0.628464,0.88051 1.017066,1.2493 0.04799,0.0455 0.387842,0.28756 0.436914,0.32291 0.170405,0.088 0.312666,0.22204 0.480476,0.31391 0.07534,0.0412 0.162507,0.0582 0.237254,0.10048 0.09923,0.0562 0.183859,0.13558 0.282117,0.19343 0.216565,0.1275 0.284938,0.1329 0.520222,0.20329 0.156294,0.0626 0.396396,0.1728 0.570528,0.19018 0.08933,0.009 0.179033,-0.0138 0.26868,-0.0186 0.34359,-0.0184 0.688117,-0.025 1.032004,-0.0355 0.700395,-0.002 1.388978,-0.0743 2.073714,-0.21762 0.683208,-0.24285 1.386489,-0.47646 2.09309,-0.64567 0.719918,-0.17239 1.221864,-0.21965 1.969447,-0.32181 1.149123,-0.22221 2.340007,-0.24425 3.47861,-0.52739 0.370647,-0.0922 0.727855,-0.23199 1.089056,-0.35612 1.426086,-0.49007 1.162736,-0.41274 2.651168,-1.05847 1.605698,-0.74807 3.145755,-1.62415 4.715991,-2.44184 0.481878,-0.25094 0.971635,-0.48689 1.449076,-0.74617 0.499324,-0.27117 1.913464,-1.10842 2.434598,-1.41504 -18.303143,10.83417 -10.216381,6.21498 -6.4187,3.18591 1.202259,-0.9759 2.144044,-2.21184 3.133786,-3.39043 1.174488,-1.42521 2.30822,-2.8832 3.52606,-4.2722 3.427368,-3.89002 4.841507,-3.38276 12.500227,-7.64073 0.175817,-0.0977 0.779734,0.16301 0.892524,0.23864 0.178427,0.11966 0.319707,0.28706 0.479567,0.43059 0.14984,0.24738 0.316477,0.48533 0.449527,0.74213 0.18068,0.34875 0.864464,1.97364 0.967144,2.21622 0.770237,1.81981 1.479451,3.66237 2.238698,5.48696 0.910694,2.12269 2.015148,4.14875 3.168902,6.14628 0.657227,1.13787 1.362761,2.35779 2.096888,3.45278 0.312147,0.46558 0.652897,0.91132 0.979344,1.36698 1.058544,1.39606 2.043378,2.85493 3.216302,4.16059 0.360017,0.40076 0.854057,0.88738 1.239624,1.27405 0.730384,0.6438 1.461281,1.16993 2.438655,1.30928 0.640317,0.0377 1.281794,-0.01 1.922711,-0.0105 1.662388,0.16485 3.304079,-0.18414 4.928816,-0.49531 1.65255,-0.26614 3.2601,-0.74054 4.87633,-1.16355 1.73062,-0.45296 1.99117,-0.47734 3.69328,-1.03869 0.61538,-0.20295 1.2214,-0.43326 1.83209,-0.64989 0.61393,-0.25263 1.23606,-0.48618 1.84178,-0.75789 1.86602,-0.83704 3.66646,-1.82975 5.46828,-2.79358 2.98864,-1.59869 0.69638,-0.35937 3.66303,-1.97147 5.38781,-3.14744 -1.49372,0.87954 -6.96984,3.96784 -0.49052,0.27663 0.96003,-0.58902 1.43965,-0.88416 1.2574,-0.77375 2.5125,-1.55104 3.76487,-2.33291 2.45334,-1.4862 4.71337,-3.25561 7.10144,-4.83942 1.61471,-1.02255 3.23081,-2.03859 4.79467,-3.13806 4.38659,-3.12469 8.71103,-8.372 14.22436,-8.28118 0.13768,0.0464 0.2847,0.0711 0.41304,0.13923 0.87717,0.46533 1.41245,2.06626 1.76187,2.92099 0.78497,1.58147 1.44503,3.22126 2.21734,4.80843 0.6815,1.40055 0.8968,1.74279 1.67356,3.14506 1.5618,2.45567 3.21801,4.85053 5.03067,7.12846 0.65784,0.82669 2.00723,2.42991 2.69969,3.25756 1.62087,1.89756 3.41154,3.65783 5.44997,5.1031 0.72876,0.48755 1.25657,0.79049 2.13505,0.75344 0.33023,-0.0555 0.68272,0.004 1.00196,-0.11451 0.13443,-0.0498 0.51909,-0.26997 0.62505,-0.32866 1.76375,0.60306 3.66477,0.51043 5.44506,0.003 0.42991,-0.12261 0.84121,-0.30294 1.26181,-0.45442 0.39592,-0.19237 0.80037,-0.36806 1.18772,-0.5771 0.38345,-0.20693 1.50182,-0.88421 1.12259,-0.66967 -3.24353,1.83502 -6.44828,3.73915 -9.71573,5.53121 -0.39419,0.21619 0.73471,-0.51918 1.08688,-0.79866 0.89914,-0.71355 1.22638,-1.06536 2.05112,-1.8579 2.1574,-2.15426 4.4465,-4.16668 6.58852,-6.33699 1.28116,-1.2699 2.49428,-2.60336 3.70727,-3.93742 0.48343,-0.50982 0.87734,-1.1021 1.36708,-1.60562 0.20613,-0.21193 0.42766,-0.40836 0.63882,-0.61526 0.65986,-0.67092 1.3337,-1.34282 2.10532,-1.88437 0.97597,-0.63557 1.94255,-1.2885 2.86862,-1.9949 4.20679,-3.39222 9.1273,-5.62958 13.82513,-8.34129 0.14781,0.0555 0.32987,0.0568 0.44341,0.16646 0.2808,0.27126 1.05003,1.52763 1.25893,1.83241 0.8774,1.28026 1.84236,2.49527 2.80586,3.71065 1.31522,1.54217 2.86074,2.85975 4.27185,4.30947 0.61445,0.63126 1.04529,1.11841 1.63077,1.76547 0.72181,0.93448 1.61594,1.71928 2.33867,2.65145 0.15598,0.20118 0.79388,1.10845 0.94451,1.32154 0.61771,0.80983 1.36956,1.52003 2.18844,2.12526 0.0303,0.0224 1.24827,0.84528 1.29349,0.87585 0.97172,0.51605 1.89874,1.10344 2.82697,1.69225 0.75675,0.55645 1.17516,0.81495 2.11564,0.647 0.11395,-0.0325 0.23406,-0.0483 0.34185,-0.0976 0.10094,-0.0461 0.71547,-0.46741 0.76251,-0.49951 0.1813,-0.12378 0.73306,-0.48237 0.54253,-0.37334 -3.47297,1.98732 -13.87788,7.97337 -10.3917,6.00927 4.00894,-2.25862 7.97343,-4.59528 11.96014,-6.89293 -19.60657,11.49384 -7.65865,4.45226 -3.23973,1.59918 1.68715,-1.08122 3.26658,-2.31626 4.90392,-3.46848 0.8012,-0.56381 1.2539,-0.85196 2.07632,-1.39268 2.14568,-1.41298 4.34975,-2.74171 6.38234,-4.3191 0.34874,-0.27066 0.68453,-0.55767 1.02679,-0.8365 0.98891,-0.88153 1.96003,-1.79201 2.8221,-2.80034 0.15515,-0.18145 0.85984,-1.06601 1.02288,-1.26998 0.9284,-1.07848 1.78207,-2.21625 2.66777,-3.32899 2.98346,-4.21319 3.61682,-3.14909 12.6034,-7.13952 0.29675,-0.13179 0.42426,0.49409 0.60251,0.76553 0.29786,0.45359 0.86354,1.65918 1.07256,2.08747 0.36105,0.79587 1.11766,2.53206 1.5715,3.22963 0.68138,1.04732 1.79504,2.1378 2.68015,2.99419 4.73675,4.58323 -1.59729,-1.70577 3.20995,3.09625 2.00279,2.08951 3.8712,4.30112 5.81834,6.44135 1.10983,1.21985 1.54393,1.66944 2.66468,2.85727 0.19761,0.21109 2.14878,2.38003 2.54357,2.48037 0.38362,0.0975 1.40933,-0.72121 1.05799,-0.53897 -3.36857,1.74735 -6.64575,3.68468 -10.10973,5.23433 -0.4666,0.20872 0.67357,-0.76904 1.00264,-1.16018 0.30763,-0.36571 0.60481,-0.7401 0.90717,-1.11014 4.1682,-3.78481 2.35501,-2.27498 12.97924,-7.43186 0.39257,-0.19055 0.87525,0.023 1.30564,0.0947 1.14927,0.19136 2.44362,0.73082 3.54121,1.13517 1.53998,0.5795 3.08327,1.17848 4.69773,1.51603 0.48506,0.0451 1.38563,0.243 1.84904,0.0444 0.0928,-0.0397 0.16881,-0.11065 0.25316,-0.16598 2.62472,-3.85131 0.25453,-0.28177 -10.97122,6.16078 -0.13956,0.0801 0.27708,-0.16698 0.39847,-0.27262 0.55933,-0.48675 0.97882,-1.12715 1.4006,-1.72743 1.09894,-1.66078 2.01488,-3.46206 2.72026,-5.32592 0.19439,-0.5136 0.35073,-1.0408 0.52609,-1.56119 0.89406,-3.13089 1.08321,-6.38976 1.13327,-9.62685 -0.0864,-2.00297 -0.11697,-4.00758 -0.20357,-6.01056 -0.0312,-0.62107 -0.0728,-1.2413 -0.12385,-1.86101 0,0 11.84351,-6.04196 11.84351,-6.04196 v 0 c -0.044,0.65934 -0.0794,1.31903 -0.10506,1.97937 -0.0715,2.11318 -0.0921,4.22864 -0.31279,6.33386 -0.20572,3.33167 -0.43538,6.6707 -1.12469,9.94487 -0.28853,1.28952 -0.35084,1.72236 -0.75065,2.94612 -0.44524,1.3627 -1.04595,2.67769 -1.65026,3.97479 -0.35351,0.59713 -0.69713,1.19926 -1.04611,1.79877 -0.0859,0.14753 -0.10189,0.35901 -0.24734,0.44843 -11.39533,7.00752 -7.25857,6.72486 -12.23459,6.98473 -0.80039,-0.0598 -1.58422,-0.22004 -2.32767,-0.5322 -1.45341,-0.58308 -2.84586,-1.30606 -4.30583,-1.8744 -1.02989,-0.37828 -2.08354,-0.80587 -3.20646,-0.76901 -0.36611,0.012 -1.39102,0.37677 -1.08458,0.17617 4.89698,-3.20562 13.64599,-7.98022 8.54339,-5.18403 -0.33067,0.34778 -0.69463,0.66666 -0.99197,1.04336 -0.30099,0.38137 -0.38958,0.95423 -0.79539,1.22134 -3.86604,2.54468 -7.77973,5.04852 -11.9084,7.14044 -0.35308,0.17891 -0.7263,-0.33436 -1.03497,-0.58222 -0.69667,-0.55954 -1.89306,-1.98223 -2.4706,-2.64013 -1.76733,-2.04687 -3.5221,-4.10467 -5.28531,-6.1551 -0.46556,-0.54143 -0.91538,-1.09652 -1.38938,-1.63063 -0.48737,-0.54923 -0.99605,-1.07918 -1.49411,-1.61876 -0.53877,-0.51684 -1.06762,-1.04422 -1.61628,-1.55053 -1.21283,-1.11915 -2.14397,-1.82567 -3.28414,-3.02021 -1.39317,-1.45966 -1.38004,-1.62696 -2.52519,-3.20597 -0.31556,-0.4352 -0.64264,-0.862 -0.96395,-1.293 -0.27184,-0.31167 -0.93642,-1.1793 -1.40931,-1.41011 -0.0811,-0.0396 -0.34006,0.11415 -0.26164,0.0694 3.77237,-2.15377 7.58616,-4.23469 11.35142,-6.40087 0.13059,-0.0751 -0.30091,0.0532 -0.43553,0.12088 -0.15772,0.0793 -0.28485,0.20856 -0.42731,0.31284 -0.9762,1.23094 0.22045,-0.25228 -0.86426,1.00646 -0.67977,0.78881 -1.24798,1.67119 -1.98292,2.41348 -1.31013,1.59444 -2.60178,3.22041 -4.23399,4.50526 -0.37082,0.3118 -0.73353,0.63347 -1.11242,0.9354 -1.95932,1.56148 -4.07455,2.90782 -6.14875,4.30685 -1.12536,0.74852 -2.29132,1.43695 -3.39961,2.21076 -1.29733,0.9058 -2.53981,1.89149 -3.86347,2.76065 -1.684,1.14162 -3.41675,2.19681 -5.13802,3.2801 -0.37363,0.23513 -0.72986,0.49801 -1.1105,0.72158 -3.97416,2.3342 -7.96845,4.634 -11.95267,6.951 3.3729,-1.94476 13.46332,-7.82721 10.11866,-5.83428 -3.94605,2.35127 -7.93993,4.62144 -11.92301,6.90941 -0.40018,0.22987 -0.911,0.46646 -1.3735,0.55523 -0.33909,0.0651 -0.66467,0.0167 -1.00181,-0.0115 -0.34543,-0.0856 -0.53463,-0.11582 -0.86109,-0.26369 -0.56834,-0.25744 -1.04046,-0.67706 -1.56701,-1.0035 -0.89796,-0.60694 -1.80792,-1.19894 -2.65106,-1.88235 -1.30774,-1.02714 -2.69809,-1.96773 -3.64221,-3.37252 -0.16788,-0.21884 -0.33576,-0.43768 -0.50363,-0.65652 -0.14039,-0.20038 -0.27423,-0.40554 -0.4212,-0.60115 -0.69891,-0.93016 -1.472,-1.80612 -2.09036,-2.7966 -0.71765,-0.97035 -1.44936,-1.93121 -2.2526,-2.83363 -1.05533,-1.18565 -2.21654,-2.27451 -3.2348,-3.49421 -0.78348,-0.9325 -1.26616,-1.55635 -2.13984,-2.403 -0.25222,-0.24444 -1.44877,-1.33758 -1.92077,-1.51255 -0.31428,-0.1165 -0.37061,0.1824 -0.43501,0.34425 3.74524,-2.17224 7.49311,-4.33992 11.23571,-6.5167 0.12286,-0.0715 -0.25666,0.12382 -0.37626,0.20061 -0.14038,0.0901 -0.2637,0.2047 -0.4015,0.29868 -0.50134,0.34191 -1.02952,0.64671 -1.52118,1.00383 -0.32935,0.27102 -0.63928,0.56564 -0.97573,0.82778 -0.14553,0.11339 -0.30834,0.20288 -0.45761,0.31127 -0.40949,0.29734 -0.80137,0.61998 -1.22537,0.89796 -0.13358,0.0821 -0.26384,0.16983 -0.40073,0.24628 -0.13295,0.0743 -0.28076,0.12182 -0.40804,0.20541 -0.12822,0.0842 -0.2339,0.19858 -0.35346,0.2947 -0.34966,0.28114 -0.69423,0.56434 -1.02483,0.86859 -0.0214,0.0224 -0.60032,0.62925 -0.62289,0.65014 -0.30539,0.28286 -0.4618,0.34368 -0.76428,0.64704 -0.30529,0.30619 -0.54168,0.67708 -0.8764,0.95628 -0.86435,0.99205 -0.11974,0.16447 -1.07699,1.14903 -1.04631,1.07618 -2.0932,2.1465 -3.2292,3.13114 -0.0926,0.0886 -2.23978,2.14287 -2.29014,2.19221 -0.37928,0.37169 -0.74512,0.75697 -1.12463,1.12844 -3.03218,2.96794 0.84147,-0.8631 -2.12063,1.98155 -0.33749,0.3241 -0.65906,0.66437 -0.98858,0.99655 -0.72883,0.75842 -1.18447,1.25555 -1.95687,1.96822 -0.32561,0.30041 -0.62253,0.64382 -1.00062,0.87471 -3.90757,2.38626 -7.87555,4.67246 -11.83838,6.96578 -0.38302,0.22165 -0.78776,0.40532 -1.19559,0.57708 -0.40447,0.17034 -0.82541,0.29857 -1.23812,0.44786 -1.22529,0.30493 -1.48036,0.41227 -2.7494,0.54872 -1.23875,0.1332 -1.44604,0.049 -2.68197,0.10727 -0.40105,0.0189 -0.80617,0.02 -1.20083,0.0938 -0.24891,0.0465 -0.4749,0.17594 -0.71236,0.26391 -0.7529,0.15341 -1.42878,0.16851 -2.17043,-0.0446 -0.84972,-0.33507 -1.52824,-0.92621 -2.16288,-1.57475 -1.69322,-1.83211 -3.08692,-3.90899 -4.55706,-5.91818 -2.5696,-3.5252 -5.30014,-6.92695 -7.88643,-10.43964 -0.37278,-0.53346 -0.76093,-1.05649 -1.11834,-1.60037 -0.87076,-1.32514 -0.88233,-1.49076 -1.65545,-2.81476 -0.62263,-1.06627 -1.29306,-2.10496 -1.94428,-3.15372 -0.14679,-0.2102 -1.01094,-1.63318 -1.40203,-1.52668 -0.1077,0.0293 -0.1388,0.20424 -0.25916,0.21205 -3.47703,2.88883 -0.295,0.226 10.83331,-6.24574 0.15769,-0.0917 -0.32198,0.17251 -0.47459,0.27244 -0.61691,0.40397 -1.18571,0.88494 -1.7936,1.30182 -1.67194,1.20853 -3.36638,2.38326 -5.19152,3.35376 -0.10063,0.064 -2.33132,1.48089 -2.40295,1.52985 -1.60051,1.09412 -3.0611,2.39257 -4.75178,3.35533 -6.28182,3.90388 -12.7014,7.58812 -19.13892,11.2259 -3.64223,1.94769 -7.25457,4.0045 -11.14973,5.41441 -0.63275,0.21132 -1.26109,0.43631 -1.89824,0.63396 -1.059814,0.32877 -2.667945,0.74588 -3.735559,1.04056 -1.751051,0.48332 -3.495999,0.99374 -5.27493,1.36877 -1.930678,0.42183 -3.872669,0.83232 -5.857937,0.85533 -0.736364,-0.002 -1.489901,-0.0412 -2.170418,-0.35102 -0.993294,-0.50048 -1.816158,-1.23433 -2.469235,-2.13696 -1.397761,-1.92382 -2.691535,-3.92695 -3.853349,-6.00201 -0.279007,-0.50567 -0.568527,-1.00566 -0.837014,-1.51699 -0.628867,-1.19768 -1.199734,-2.42508 -1.820961,-3.62674 -1.068494,-2.06684 -2.197287,-4.10263 -3.258897,-6.17316 -0.917325,-1.69736 -1.77199,-3.42438 -2.890082,-5.00198 -0.361815,-0.51052 -0.920811,-1.25153 -1.416386,-1.69287 -0.0991,-0.0883 -0.228386,-0.13518 -0.342577,-0.20277 -0.257715,0.0585 -0.222247,0.0209 -0.434859,0.18914 -0.07397,0.0585 -0.291584,0.23704 -0.209965,0.18974 3.710858,-2.15037 7.405032,-4.32943 11.102901,-6.50202 0.16131,-0.0948 -0.340267,0.16025 -0.492907,0.26842 -0.190007,0.13464 -0.352867,0.30397 -0.529307,0.45596 -1.361411,1.2591 -2.603925,2.66076 -3.631628,4.20689 -0.99011,1.18921 -1.865481,2.47719 -2.970574,3.56609 -4.548031,4.05704 -10.598182,6.40214 -15.533476,9.66179 -1.190069,0.64962 -2.394582,1.26164 -3.603106,1.87606 -0.62643,0.31847 -2.495593,1.2873 -3.088352,1.57739 -0.557485,0.27282 -1.122899,0.52914 -1.684351,0.79371 -1.169506,0.49724 -1.940843,0.8723 -3.141485,1.21848 -1.51202,0.43595 -3.109553,0.45934 -4.635288,0.83197 -1.494094,0.39613 -0.796827,0.18632 -2.160593,0.63737 -0.660305,0.21839 -1.33286,0.4811 -2.015292,0.62632 -0.159027,0.0338 -0.322066,0.0449 -0.4831,0.0673 -0.735126,0.0722 -1.469741,0.092 -2.208284,0.0554 -0.802912,-0.0356 -1.507931,-0.16105 -2.223116,-0.55259 -0.610719,-0.33174 -1.214184,-0.68362 -1.742048,-1.14013 -0.58446,-0.56487 -1.026735,-1.2389 -1.504794,-1.89274 -0.594577,-0.79545 -1.129538,-1.6327 -1.508911,-2.55487 -0.563232,-1.32486 -1.098693,-2.66155 -1.678197,-3.97932 -0.314801,-0.67323 -0.354896,-0.81544 -0.751482,-1.44124 -0.528974,-0.83471 -1.209689,-1.56411 -1.702213,-2.42476 -0.05803,-0.10261 -0.474028,-0.93145 -0.568979,-0.99833 -0.03553,-0.025 0.0094,0.0876 0.02598,0.12776 0.04919,0.11916 0.05692,0.40898 0.17013,0.34731 3.920255,-2.1355 7.714025,-4.49542 11.571036,-6.74313 -0.07265,0.006 -0.15394,-0.0169 -0.217948,0.0179 -0.363302,0.19799 -0.579699,1.15162 -0.83661,1.48196 -0.210248,0.33512 -0.376539,0.70699 -0.604422,1.02978 -0.251666,0.35647 -0.579786,0.66395 -0.774991,1.06222 -0.558215,0.96111 -1.039892,1.96337 -1.623036,2.91049 -0.102087,0.14088 -0.196596,0.28758 -0.306263,0.42265 -0.198297,0.24422 -0.434581,0.45577 -0.634307,0.69883 -0.34273,0.41709 -0.661707,0.8531 -1.067736,1.2159 -3.954664,3.34008 -0.387917,0.37705 -12.318966,7.20411 -0.204774,0.11717 -0.827638,0.45315 -0.6242,0.33367 3.486515,-2.04771 6.990938,-4.06489 10.473902,-6.11864 0.437698,-0.25809 -1.857685,0.89225 -1.242465,0.88318 -0.172688,0.17357 -0.354057,0.33892 -0.518065,0.52072 -0.746868,0.82787 -1.295466,1.82234 -2.112205,2.58812 -0.274334,0.26161 -0.603359,0.60599 -0.935464,0.79982 -4.710679,2.74936 -8.8105791,5.58135 -13.6444604,7.62391 -1.3845801,0.52201 -2.82011017,0.84536 -4.25224151,1.2085 -1.16601499,0.31781 -2.31984339,0.6821 -3.50054279,0.9435 -1.2784305,0.29946 -2.5617445,0.64886 -3.879186,0.70915 -0.8558043,0.0226 -1.7119617,0.0518 -2.5681503,0.0404 -0.641716,-0.0181 -1.281677,-0.0961 -1.895526,-0.29288 -0.743029,-0.23984 -1.470642,-0.5159 -2.139877,-0.92518 -0.753713,-0.41791 -1.523633,-0.80815 -2.2529,-1.26829 -0.800368,-0.55024 -1.510901,-1.18724 -2.130237,-1.93844 -0.747315,-0.86429 -1.480515,-1.74298 -2.085965,-2.71545 -0.896141,-1.28211 -1.768242,-2.61432 -3.028522,-3.57482 -1.030631,-0.98117 -2.145272,-1.8685 -3.433663,-2.49286 -0.45916,-0.25643 -0.68985,-0.34423 -1.06584,-0.70264 -0.31697,-0.30215 -0.48728,-0.73949 -0.83427,-1.01704 0,0 11.773879,-6.89913 11.773879,-6.89913 z"
       inkscape:connector-curvature="0" />
    <path
       style="fill:#00c4c4;fill-opacity:1;stroke:none;stroke-width:0.26458332;stroke-opacity:1"
       id="path4530-3-6"
       d="m -6.4848972,251.37128 c 0.1844896,0.32305 0.3270097,0.71951 0.6149993,0.96925 0.0722,0.0626 0.1604301,0.10446 0.2347801,0.16448 0.14582,0.11771 0.28331,0.24538 0.4249597,0.36808 0.19684,0.15886 0.38656,0.32698 0.5905197,0.47659 0.6399597,0.46944 1.3271694,0.87634 1.9705987,1.34202 0.2214401,0.16027 0.7657298,0.5863 0.9949298,0.76457 0.1533997,0.19977 0.3109197,0.39645 0.4601997,0.59932 0.1737496,0.23613 0.33432962,0.48178 0.50871962,0.71744 0.65539934,0.88568 1.37101901,1.72812 2.07348868,2.57639 0.6984094,0.87027 1.4390691,1.70141 2.2085088,2.50849 0.4424697,0.37473 0.8005094,0.85241 1.2693291,1.19779 0.0942,0.0694 0.6137697,0.35494 0.7040197,0.40531 0.7505194,0.38102 1.4845191,0.78535 2.2358088,1.16346 0.6144694,0.33025 1.3074491,0.5145 1.9957988,0.61518 0.5809797,0.0666 1.1663997,0.0343 1.7495797,0.04 0.79029,-0.005 1.57913,0.0511 2.36801,-0.003 1.2082,-0.23844 2.40451,-0.51576 3.59831,-0.82032 1.15451,-0.40042 2.33492,-0.69881 3.52455,-0.97359 0.91426,-0.20792 1.84939,-0.37866 2.7303,-0.71003 0.56831,-0.21379 0.7786,-0.34739 1.31418,-0.63149 0.11042,-0.05 1.13871,-0.51356 1.26445,-0.57957 0.18868,-0.099 0.73484,-0.43185 0.54995,-0.3259 -19.3821585,11.10768 -13.48962,8.03726 -9.80758,5.57528 1.13607,-0.81196 1.94787,-1.95721 2.8567,-2.99693 3.54582,-3.82984 7.93542,-5.09388 13.01454,-8.01712 0.22014,-0.1267 0.90079,-0.46921 0.6809,-0.34206 -3.4061,1.96958 -13.64878,7.836 -10.24028,5.87058 0.81958,-0.51111 1.41392,-1.27996 2.06446,-1.97727 0.72011,-0.79765 1.24319,-1.74773 1.73783,-2.69529 0.31569,-0.75034 0.82426,-1.38529 1.22963,-2.08312 0.33904,-0.53075 0.67877,-1.07408 0.78897,-1.70226 1.86095,-1.65111 10.26219,-10.96041 12.53817,-5.81158 0.17743,0.40138 0.2951,0.85385 0.44555,1.26659 0.30701,0.88001 0.90894,1.59662 1.35879,2.39882 0.22269,0.3971 0.60244,1.2064 0.80053,1.61991 0.60622,1.28867 1.18625,2.59022 1.90093,3.82359 0.39278,0.82678 0.93111,1.56525 1.47725,2.29479 0.33318,0.41513 0.62847,0.88051 1.01707,1.2493 0.048,0.0455 0.38784,0.28756 0.43691,0.32291 0.17041,0.088 0.31267,0.22204 0.48048,0.31391 0.0753,0.0412 0.16251,0.0582 0.23725,0.10048 0.0992,0.0562 0.18386,0.13558 0.28212,0.19343 0.21657,0.1275 0.28494,0.1329 0.52022,0.20329 0.1563,0.0626 0.3964,0.1728 0.57053,0.19018 0.0893,0.009 0.17903,-0.0138 0.26868,-0.0186 0.34359,-0.0184 0.68812,-0.025 1.03201,-0.0355 0.70039,-0.002 1.38897,-0.0743 2.07371,-0.21762 0.68321,-0.24285 1.38649,-0.47646 2.09309,-0.64567 0.71992,-0.17239 1.22186,-0.21965 1.96945,-0.32181 1.14912,-0.22221 2.34,-0.24425 3.47861,-0.52739 0.37064,-0.0922 0.72785,-0.23199 1.08905,-0.35612 1.42609,-0.49007 1.16274,-0.41274 2.65117,-1.05847 1.6057,-0.74807 3.14576,-1.62415 4.71599,-2.44184 0.48188,-0.25094 0.97164,-0.48689 1.44908,-0.74617 0.49932,-0.27117 1.913457,-1.10842 2.434584,-1.41504 -18.303134,10.83417 -10.216374,6.21498 -6.418684,3.18591 1.20225,-0.9759 2.14404,-2.21184 3.13378,-3.39043 1.17449,-1.42521 2.308217,-2.8832 3.526051,-4.2722 3.427352,-3.89002 4.841483,-3.38276 12.500171,-7.64073 0.175817,-0.0977 0.779734,0.16301 0.892524,0.23864 0.178427,0.11966 0.319707,0.28706 0.479567,0.43059 0.14984,0.24738 0.316477,0.48533 0.449527,0.74213 0.18068,0.34875 0.864464,1.97364 0.967144,2.21622 0.770237,1.81981 1.479451,3.66237 2.238698,5.48696 0.910694,2.12269 2.015148,4.14875 3.168902,6.14628 0.657227,1.13787 1.362761,2.35779 2.096888,3.45278 0.312147,0.46558 0.652897,0.91132 0.979344,1.36698 1.058544,1.39606 2.043381,2.85493 3.216311,4.16059 0.36002,0.40076 0.85406,0.88738 1.23963,1.27405 0.73039,0.6438 1.46129,1.16993 2.43867,1.30928 0.64032,0.0377 1.2818,-0.01 1.92272,-0.0105 1.6624,0.16485 3.3041,-0.18414 4.92884,-0.49531 1.65255,-0.26614 3.2601,-0.74054 4.87633,-1.16355 1.73062,-0.45296 1.99117,-0.47734 3.69328,-1.03869 0.61538,-0.20295 1.2214,-0.43326 1.83209,-0.64989 0.61393,-0.25263 1.23606,-0.48618 1.84178,-0.75789 1.86602,-0.83704 3.66646,-1.82975 5.46828,-2.79358 2.98864,-1.59869 0.69638,-0.35937 3.66303,-1.97147 5.38781,-3.14744 -1.49372,0.87954 -6.96984,3.96784 -0.49052,0.27663 0.96003,-0.58902 1.43965,-0.88416 1.2574,-0.77375 2.5125,-1.55104 3.76487,-2.33291 2.45334,-1.4862 4.71337,-3.25561 7.10144,-4.83942 1.61471,-1.02255 3.23081,-2.03859 4.79467,-3.13806 4.38659,-3.12469 8.71103,-8.372 14.22436,-8.28118 0.13768,0.0464 0.2847,0.0711 0.41304,0.13923 0.87717,0.46533 1.41245,2.06626 1.76187,2.92099 0.78497,1.58147 1.44503,3.22126 2.21734,4.80843 0.6815,1.40055 0.8968,1.74279 1.67356,3.14506 1.5618,2.45567 3.21801,4.85053 5.03067,7.12846 0.65784,0.82669 2.00723,2.42991 2.69969,3.25756 1.62087,1.89756 3.41154,3.65783 5.44997,5.1031 0.72876,0.48755 1.25657,0.79049 2.13505,0.75344 0.33023,-0.0555 0.68272,0.004 1.00196,-0.11451 0.13443,-0.0498 0.51909,-0.26997 0.62505,-0.32866 1.76375,0.60306 3.66477,0.51043 5.44506,0.003 0.42991,-0.12261 0.84121,-0.30294 1.26181,-0.45442 0.39592,-0.19237 0.80037,-0.36806 1.18772,-0.5771 0.38345,-0.20693 1.50182,-0.88421 1.12259,-0.66967 -3.24353,1.83502 -6.44828,3.73915 -9.71573,5.53121 -0.39419,0.21619 0.73471,-0.51918 1.08688,-0.79866 0.89914,-0.71355 1.22638,-1.06536 2.05112,-1.8579 2.1574,-2.15426 4.4465,-4.16668 6.58852,-6.33699 1.28116,-1.2699 2.49428,-2.60336 3.70727,-3.93742 0.48343,-0.50982 0.87734,-1.1021 1.36708,-1.60562 0.20613,-0.21193 0.42766,-0.40836 0.63882,-0.61526 0.65986,-0.67092 1.3337,-1.34282 2.10532,-1.88437 0.97597,-0.63557 1.94255,-1.2885 2.86862,-1.9949 4.20679,-3.39222 9.1273,-5.62958 13.82513,-8.34129 0.14781,0.0555 0.32987,0.0568 0.44341,0.16646 0.2808,0.27126 1.05003,1.52763 1.25893,1.83241 0.8774,1.28026 1.84236,2.49527 2.80586,3.71065 1.31522,1.54217 2.86074,2.85975 4.27185,4.30947 0.61445,0.63126 1.04529,1.11841 1.63077,1.76547 0.72181,0.93448 1.61594,1.71928 2.33867,2.65145 0.15598,0.20118 0.79388,1.10845 0.94451,1.32154 0.61771,0.80983 1.36956,1.52003 2.18844,2.12526 0.0303,0.0224 1.24827,0.84528 1.29349,0.87585 0.97172,0.51605 1.89874,1.10344 2.82697,1.69225 0.75675,0.55645 1.17516,0.81495 2.11564,0.647 0.11395,-0.0325 0.23406,-0.0483 0.34185,-0.0976 0.10094,-0.0461 0.71547,-0.46741 0.76251,-0.49951 0.1813,-0.12378 0.73306,-0.48237 0.54253,-0.37334 -3.47297,1.98732 -13.87788,7.97337 -10.3917,6.00927 4.00894,-2.25862 7.97343,-4.59528 11.96014,-6.89293 -19.60657,11.49384 -7.65865,4.45226 -3.23973,1.59918 1.68715,-1.08122 3.26658,-2.31626 4.90392,-3.46848 0.8012,-0.56381 1.2539,-0.85196 2.07632,-1.39268 2.14568,-1.41298 4.34975,-2.74171 6.38234,-4.3191 0.34874,-0.27066 0.68453,-0.55767 1.02679,-0.8365 0.98891,-0.88153 1.96003,-1.79201 2.8221,-2.80034 0.15515,-0.18145 0.85984,-1.06601 1.02288,-1.26998 0.9284,-1.07848 1.78207,-2.21625 2.66777,-3.32899 2.98346,-4.21319 3.61682,-3.14909 12.6034,-7.13952 0.29675,-0.13179 0.42426,0.49409 0.60251,0.76553 0.29786,0.45359 0.86354,1.65918 1.07256,2.08747 0.36105,0.79587 1.11766,2.53206 1.5715,3.22963 0.68138,1.04732 1.79504,2.1378 2.68015,2.99419 4.73675,4.58323 -1.59729,-1.70577 3.20995,3.09625 2.00279,2.08951 3.8712,4.30112 5.81834,6.44135 1.10983,1.21985 1.54393,1.66944 2.66468,2.85727 0.19761,0.21109 2.14878,2.38003 2.54357,2.48037 0.38362,0.0975 1.40933,-0.72121 1.05799,-0.53897 -3.36857,1.74735 -6.64575,3.68468 -10.10973,5.23433 -0.4666,0.20872 0.67357,-0.76904 1.00264,-1.16018 0.30763,-0.36571 0.60481,-0.7401 0.90717,-1.11014 4.1682,-3.78481 2.35501,-2.27498 12.97924,-7.43186 0.39257,-0.19055 0.87525,0.023 1.30564,0.0947 1.14927,0.19136 2.44362,0.73082 3.54121,1.13517 1.53998,0.5795 3.08327,1.17848 4.69773,1.51603 0.48506,0.0451 1.38563,0.243 1.84904,0.0444 0.0928,-0.0397 0.16881,-0.11065 0.25316,-0.16598 2.62472,-3.85131 0.25453,-0.28177 -10.97122,6.16078 -0.13956,0.0801 0.27708,-0.16698 0.39847,-0.27262 0.55933,-0.48675 0.97882,-1.12715 1.4006,-1.72743 1.09894,-1.66078 2.01488,-3.46206 2.72026,-5.32592 0.19439,-0.5136 0.35073,-1.0408 0.52609,-1.56119 0.89406,-3.13089 1.08321,-6.38976 1.13327,-9.62685 -0.0864,-2.00297 -0.11698,-4.00758 -0.20357,-6.01056 -0.0312,-0.62107 -0.0728,-1.2413 -0.12385,-1.86101 0,0 11.84351,-6.04196 11.84351,-6.04196 v 0 c -0.044,0.65934 -0.0794,1.31903 -0.10506,1.97937 -0.0715,2.11318 -0.0921,4.22864 -0.31279,6.33386 -0.20572,3.33167 -0.43538,6.6707 -1.12469,9.94487 -0.28853,1.28952 -0.35084,1.72236 -0.75065,2.94612 -0.44524,1.3627 -1.04595,2.67769 -1.65026,3.97479 -0.35351,0.59713 -0.69713,1.19926 -1.04611,1.79877 -0.0859,0.14753 -0.10189,0.35901 -0.24734,0.44843 -11.39533,7.00752 -7.25857,6.72486 -12.23459,6.98473 -0.80039,-0.0598 -1.58422,-0.22004 -2.32767,-0.5322 -1.45341,-0.58308 -2.84586,-1.30606 -4.30583,-1.8744 -1.02989,-0.37828 -2.08355,-0.80587 -3.20646,-0.76901 -0.36611,0.012 -1.39102,0.37677 -1.08458,0.17617 4.89698,-3.20562 13.64599,-7.98022 8.54339,-5.18403 -0.33067,0.34778 -0.69463,0.66666 -0.99197,1.04336 -0.30099,0.38137 -0.38958,0.95423 -0.79539,1.22134 -3.86604,2.54468 -7.77973,5.04852 -11.9084,7.14044 -0.35308,0.17891 -0.7263,-0.33436 -1.03497,-0.58222 -0.69667,-0.55954 -1.89306,-1.98223 -2.4706,-2.64013 -1.76733,-2.04687 -3.5221,-4.10467 -5.28531,-6.1551 -0.46556,-0.54143 -0.91538,-1.09652 -1.38938,-1.63063 -0.48737,-0.54923 -0.99605,-1.07918 -1.49411,-1.61876 -0.53877,-0.51684 -1.06762,-1.04422 -1.61628,-1.55053 -1.21283,-1.11915 -2.14397,-1.82567 -3.28414,-3.02021 -1.39317,-1.45966 -1.38004,-1.62696 -2.52519,-3.20597 -0.31557,-0.4352 -0.64264,-0.862 -0.96395,-1.293 -0.27184,-0.31167 -0.93642,-1.1793 -1.40931,-1.41011 -0.0811,-0.0396 -0.34006,0.11415 -0.26164,0.0694 3.77237,-2.15377 7.58616,-4.23469 11.35142,-6.40087 0.13059,-0.0751 -0.30091,0.0532 -0.43553,0.12088 -0.15772,0.0793 -0.28485,0.20856 -0.42731,0.31284 -0.9762,1.23094 0.22045,-0.25228 -0.86426,1.00646 -0.67977,0.78881 -1.24798,1.67119 -1.98292,2.41348 -1.31014,1.59444 -2.60178,3.22041 -4.23399,4.50526 -0.37082,0.3118 -0.73353,0.63347 -1.11242,0.9354 -1.95932,1.56148 -4.07455,2.90782 -6.14875,4.30685 -1.12536,0.74852 -2.29132,1.43695 -3.39961,2.21076 -1.29733,0.9058 -2.53981,1.89149 -3.86347,2.76065 -1.684,1.14162 -3.41675,2.19681 -5.13802,3.2801 -0.37363,0.23513 -0.72986,0.49801 -1.1105,0.72158 -3.97416,2.3342 -7.96845,4.634 -11.95267,6.951 3.3729,-1.94476 13.46332,-7.82721 10.11866,-5.83428 -3.94605,2.35127 -7.93993,4.62144 -11.92301,6.90941 -0.40018,0.22987 -0.911,0.46646 -1.3735,0.55523 -0.33909,0.0651 -0.66467,0.0167 -1.00181,-0.0115 -0.34543,-0.0856 -0.53463,-0.11582 -0.86109,-0.26369 -0.56834,-0.25744 -1.04046,-0.67706 -1.56701,-1.0035 -0.89796,-0.60694 -1.80792,-1.19894 -2.65106,-1.88235 -1.30774,-1.02714 -2.69809,-1.96773 -3.64221,-3.37252 -0.16788,-0.21884 -0.33576,-0.43768 -0.50363,-0.65652 -0.14039,-0.20038 -0.27423,-0.40554 -0.4212,-0.60115 -0.69891,-0.93016 -1.472,-1.80612 -2.09036,-2.7966 -0.71765,-0.97035 -1.44936,-1.93121 -2.2526,-2.83363 -1.05533,-1.18565 -2.21654,-2.27451 -3.2348,-3.49421 -0.78348,-0.9325 -1.26616,-1.55635 -2.13984,-2.403 -0.25222,-0.24444 -1.44877,-1.33758 -1.92077,-1.51255 -0.31428,-0.1165 -0.37061,0.1824 -0.43501,0.34425 3.74524,-2.17224 7.49311,-4.33992 11.23571,-6.5167 0.12286,-0.0715 -0.25666,0.12382 -0.37626,0.20061 -0.14038,0.0901 -0.2637,0.2047 -0.4015,0.29868 -0.50134,0.34191 -1.02952,0.64671 -1.52118,1.00383 -0.32935,0.27102 -0.63928,0.56564 -0.97573,0.82778 -0.14553,0.11339 -0.30834,0.20288 -0.45761,0.31127 -0.40949,0.29734 -0.80137,0.61998 -1.22537,0.89796 -0.13358,0.0821 -0.26384,0.16983 -0.40073,0.24628 -0.13295,0.0743 -0.28076,0.12182 -0.40804,0.20541 -0.12822,0.0842 -0.2339,0.19858 -0.35346,0.2947 -0.34966,0.28114 -0.69423,0.56434 -1.02483,0.86859 -0.0214,0.0224 -0.60032,0.62925 -0.62289,0.65014 -0.30539,0.28286 -0.4618,0.34368 -0.76428,0.64704 -0.30529,0.30619 -0.54168,0.67708 -0.8764,0.95628 -0.86435,0.99205 -0.11974,0.16447 -1.07699,1.14903 -1.04631,1.07618 -2.0932,2.1465 -3.2292,3.13114 -0.0926,0.0886 -2.23978,2.14287 -2.29014,2.19221 -0.37928,0.37169 -0.74512,0.75697 -1.12463,1.12844 -3.03218,2.96794 0.84147,-0.8631 -2.12063,1.98155 -0.33749,0.3241 -0.65906,0.66437 -0.98858,0.99655 -0.72883,0.75842 -1.18447,1.25555 -1.95687,1.96822 -0.32561,0.30041 -0.62253,0.64382 -1.00062,0.87471 -3.90757,2.38626 -7.87555,4.67246 -11.83838,6.96578 -0.38302,0.22165 -0.78776,0.40532 -1.19559,0.57708 -0.40447,0.17034 -0.82541,0.29857 -1.23812,0.44786 -1.22529,0.30493 -1.48036,0.41227 -2.7494,0.54872 -1.23875,0.1332 -1.44604,0.049 -2.68197,0.10727 -0.40105,0.0189 -0.80617,0.02 -1.20083,0.0938 -0.24891,0.0465 -0.4749,0.17594 -0.71236,0.26391 -0.7529,0.15341 -1.42878,0.16851 -2.17043,-0.0446 -0.84972,-0.33507 -1.52824,-0.92621 -2.16288,-1.57475 -1.69322,-1.83211 -3.08692,-3.90899 -4.55706,-5.91818 -2.5696,-3.5252 -5.30014,-6.92695 -7.88643,-10.43964 -0.37278,-0.53346 -0.76093,-1.05649 -1.11834,-1.60037 -0.87076,-1.32514 -0.88233,-1.49076 -1.65545,-2.81476 -0.62263,-1.06627 -1.29306,-2.10496 -1.94428,-3.15372 -0.14679,-0.2102 -1.01094,-1.63318 -1.40203,-1.52668 -0.1077,0.0293 -0.1388,0.20424 -0.25916,0.21205 -3.47703,2.88883 -0.295,0.226 10.83331,-6.24574 0.15769,-0.0917 -0.32198,0.17251 -0.47459,0.27244 -0.61691,0.40397 -1.18571,0.88494 -1.7936,1.30182 -1.67194,1.20853 -3.36638,2.38326 -5.19152,3.35376 -0.10063,0.064 -2.33132,1.48089 -2.40295,1.52985 -1.60051,1.09412 -3.0611,2.39257 -4.75178,3.35533 -6.28182,3.90388 -12.7014,7.58812 -19.13892,11.2259 -3.64223,1.94769 -7.25457,4.0045 -11.14973,5.41441 -0.63275,0.21132 -1.26109,0.43631 -1.89824,0.63396 -1.05982,0.32877 -2.66796,0.74588 -3.73558,1.04056 -1.75106,0.48332 -3.49602,0.99374 -5.27496,1.36877 -1.93069,0.42183 -3.872681,0.83232 -5.857949,0.85533 -0.736364,-0.002 -1.489901,-0.0412 -2.170418,-0.35102 -0.993294,-0.50048 -1.816158,-1.23433 -2.469235,-2.13696 -1.397761,-1.92382 -2.691535,-3.92695 -3.853349,-6.00201 -0.279007,-0.50567 -0.568527,-1.00566 -0.837014,-1.51699 -0.628867,-1.19768 -1.199734,-2.42508 -1.820961,-3.62674 -1.068494,-2.06684 -2.197278,-4.10263 -3.258882,-6.17316 -0.917314,-1.69736 -1.771978,-3.42438 -2.890062,-5.00198 -0.361817,-0.51052 -0.920804,-1.25153 -1.416381,-1.69287 -0.0991,-0.0883 -0.22838,-0.13518 -0.34258,-0.20277 -0.257707,0.0585 -0.222237,0.0209 -0.434847,0.18914 -0.074,0.0585 -0.291587,0.23704 -0.20997,0.18974 3.710839,-2.15037 7.404988,-4.32943 11.102857,-6.50202 0.16131,-0.0948 -0.340267,0.16025 -0.492907,0.26842 -0.190007,0.13464 -0.352867,0.30397 -0.529307,0.45596 -1.361411,1.2591 -2.603925,2.66076 -3.631619,4.20689 -0.990104,1.18921 -1.865468,2.47719 -2.970552,3.56609 -4.548016,4.05704 -10.598151,6.40214 -15.533441,9.66179 -1.19007,0.64962 -2.39458,1.26164 -3.60311,1.87606 -0.62643,0.31847 -2.49559,1.2873 -3.08835,1.57739 -0.55748,0.27282 -1.1229,0.52914 -1.68435,0.79371 -1.1695,0.49724 -1.94084,0.8723 -3.14148,1.21848 -1.51202,0.43595 -3.10956,0.45934 -4.63529,0.83197 -1.4941,0.39613 -0.79683,0.18632 -2.1606,0.63737 -0.6603,0.21839 -1.33285,0.4811 -2.01529,0.62632 -0.15902,0.0338 -0.32206,0.0449 -0.4831,0.0673 -0.73512,0.0722 -1.46974,0.092 -2.20828,0.0554 -0.80291,-0.0356 -1.50793,-0.16105 -2.22312,-0.55259 -0.61072,-0.33174 -1.21418,-0.68362 -1.74205,-1.14013 -0.58445,-0.56487 -1.02673,-1.2389 -1.50479,-1.89274 -0.59458,-0.79545 -1.12954,-1.6327 -1.50891,-2.55487 -0.56323,-1.32486 -1.09869,-2.66155 -1.6782,-3.97932 -0.3148,-0.67323 -0.35489,-0.81544 -0.75148,-1.44124 -0.52897,-0.83471 -1.20969,-1.56411 -1.70221,-2.42476 -0.058,-0.10261 -0.47403,-0.93145 -0.56898,-0.99833 -0.0355,-0.025 0.009,0.0876 0.026,0.12776 0.0492,0.11916 0.0569,0.40898 0.17013,0.34731 3.92025,-2.1355 7.71402,-4.49542 11.57104,-6.74313 -0.0727,0.006 -0.15394,-0.0169 -0.21795,0.0179 -0.3633,0.19799 -0.5797,1.15162 -0.83661,1.48196 -0.21025,0.33512 -0.37654,0.70699 -0.60442,1.02978 -0.25167,0.35647 -0.57979,0.66395 -0.775,1.06222 -0.55821,0.96111 -1.03989,1.96337 -1.62303,2.91049 -0.10209,0.14088 -0.1966,0.28758 -0.30627,0.42265 -0.19829,0.24422 -0.43458,0.45577 -0.6343,0.69883 -0.34273,0.41709 -0.66171,0.8531 -1.06774,1.2159 -3.95466,3.34008 -0.38791,0.37705 -12.31896,7.20411 -0.20478,0.11717 -0.82764,0.45315 -0.6242,0.33367 3.48651,-2.04771 6.99093,-4.06489 10.4739,-6.11864 0.4377,-0.25809 -1.85769,0.89225 -1.24247,0.88318 -0.17269,0.17357 -0.35405,0.33892 -0.51806,0.52072 -0.74687,0.82787 -1.29547,1.82234 -2.11221,2.58812 -0.27433,0.26161 -0.60336,0.60599 -0.93546,0.79982 -4.71068,2.74936 -8.81058,5.58135 -13.64447,7.62391 -1.38458,0.52201 -2.82011,0.84536 -4.25224,1.2085 -1.1660094,0.31781 -2.3198388,0.6821 -3.5005382,0.9435 -1.2784294,0.29946 -2.5617485,0.64886 -3.8791879,0.70915 -0.8558094,0.0226 -1.7119588,0.0518 -2.56814847,0.0404 -0.64171967,-0.0181 -1.28167901,-0.0961 -1.89552863,-0.29288 -0.7430297,-0.23984 -1.4706391,-0.5159 -2.1398788,-0.92518 -0.7537098,-0.41791 -1.5236291,-0.80815 -2.2528988,-1.26829 -0.8003594,-0.55024 -1.5108991,-1.18724 -2.1302288,-1.93844 -0.7473094,-0.8643 -1.4805091,-1.74299 -2.0859588,-2.71546 -0.8961496,-1.2821 -1.7682496,-2.61431 -3.0285296,-3.57481 -1.03063,-0.98117 -2.14527,-1.8685 -3.43366,-2.49286 -0.45916,-0.25643 -0.68985,-0.34423 -1.065841,-0.70264 -0.31697,-0.30215 -0.48728,-0.73949 -0.83427,-1.01704 0,0 11.7738788,-6.89913 11.7738788,-6.89913 z"
       inkscape:connector-curvature="0" />
    <path
       style="fill:#007272;fill-opacity:1;stroke:none;stroke-width:0.26458332;stroke-opacity:1"
       id="path4530-7"
       d="m -25.840624,274.75838 c 0.184492,0.32305 0.327017,0.71951 0.615004,0.96925 0.07219,0.0626 0.160431,0.10446 0.234785,0.16448 0.145819,0.11771 0.283302,0.24538 0.424953,0.36808 0.196839,0.15886 0.386559,0.32698 0.590519,0.47659 0.639968,0.46944 1.327177,0.87634 1.970605,1.34202 0.221439,0.16027 0.765726,0.5863 0.994932,0.76457 0.1534,0.19977 0.310921,0.39645 0.4602,0.59932 0.173752,0.23613 0.334333,0.48178 0.50872,0.71744 0.655396,0.88568 1.371018,1.72812 2.073492,2.57639 0.698409,0.87027 1.439068,1.70141 2.208513,2.50849 0.442469,0.37473 0.800504,0.85241 1.26933,1.19779 0.09425,0.0694 0.61377,0.35494 0.70402,0.40531 0.750518,0.38102 1.484515,0.78535 2.235803,1.16346 0.614468,0.33025 1.307457,0.5145 1.9957992,0.61518 0.5809817,0.0666 1.1664065,0.0343 1.7495772,0.04 0.7902917,-0.005 1.5791301,0.0511 2.3680148,-0.003 1.2082,-0.23844 2.4045075,-0.51576 3.5983049,-0.82032 1.15451132,-0.40042 2.33492433,-0.69881 3.5245517,-0.97359 0.9142594,-0.20792 1.8493911,-0.37866 2.7302945,-0.71003 0.5683087,-0.21379 0.7786027,-0.34739 1.3141854,-0.63149 0.1104207,-0.05 1.1387041,-0.51356 1.2644451,-0.57957 0.188677,-0.099 0.7348347,-0.43185 0.5499517,-0.3259 -19.3821495,11.10768 -13.489611,8.03726 -9.8075741,5.57528 1.1360644,-0.81196 1.94786369,-1.95721 2.85669603,-2.99693 3.54582017,-3.82984 7.93541647,-5.09388 13.01453457,-8.01712 0.220144,-0.1267 0.90079,-0.46921 0.680905,-0.34206 -3.4061,1.96958 -13.64878257,7.836 -10.2402764,5.87058 0.8195724,-0.51111 1.4139141,-1.27996 2.0644528,-1.97727 0.7201104,-0.79765 1.2431861,-1.74773 1.7378271,-2.69529 0.3156957,-0.75034 0.8242584,-1.38529 1.2296341,-2.08312 0.33904,-0.53075 0.6787727,-1.07408 0.7889717,-1.70226 1.8609417,-1.65111 10.2621897,-10.96041 12.5381677,-5.81158 0.177424,0.40138 0.295097,0.85385 0.44555,1.26659 0.307012,0.88001 0.908934,1.59662 1.358789,2.39882 0.222686,0.3971 0.602435,1.2064 0.800528,1.61991 0.606222,1.28867 1.186252,2.59022 1.900931,3.82359 0.392782,0.82678 0.931114,1.56525 1.477254,2.29479 0.333176,0.41513 0.628464,0.88051 1.017066,1.2493 0.04799,0.0455 0.387842,0.28756 0.436914,0.32291 0.170405,0.088 0.312666,0.22204 0.480476,0.31391 0.07534,0.0412 0.162507,0.0582 0.237254,0.10048 0.09923,0.0562 0.183859,0.13558 0.282117,0.19343 0.216565,0.1275 0.284938,0.1329 0.520222,0.20329 0.156294,0.0626 0.396396,0.1728 0.570528,0.19018 0.08933,0.009 0.179033,-0.0138 0.26868,-0.0186 0.34359,-0.0184 0.688117,-0.025 1.032004,-0.0355 0.700395,-0.002 1.388978,-0.0743 2.073714,-0.21762 0.683208,-0.24285 1.386489,-0.47646 2.09309,-0.64567 0.719918,-0.17239 1.221864,-0.21965 1.969447,-0.32181 1.149123,-0.22221 2.340007,-0.24425 3.47861,-0.52739 0.370647,-0.0922 0.727855,-0.23199 1.089056,-0.35612 1.426086,-0.49007 1.162736,-0.41274 2.651168,-1.05847 1.6057,-0.74807 3.14576,-1.62415 4.71599,-2.44184 0.48188,-0.25094 0.97164,-0.48689 1.44908,-0.74617 0.49932,-0.27117 1.91346,-1.10842 2.4346,-1.41504 -18.303148,10.83417 -10.216386,6.21498 -6.4187,3.18591 1.20225,-0.9759 2.14404,-2.21184 3.13378,-3.39043 1.17449,-1.42521 2.30822,-2.8832 3.52606,-4.2722 3.42737,-3.89002 4.84151,-3.38276 12.50024,-7.64073 0.17582,-0.0977 0.77974,0.16301 0.89253,0.23864 0.17843,0.11966 0.31971,0.28706 0.47957,0.43059 0.14984,0.24738 0.31648,0.48533 0.44953,0.74213 0.18068,0.34875 0.86447,1.97364 0.96715,2.21622 0.77024,1.81981 1.47946,3.66237 2.23871,5.48696 0.910697,2.12269 2.015151,4.14875 3.168905,6.14628 0.657224,1.13787 1.362761,2.35779 2.096888,3.45278 0.312147,0.46558 0.652894,0.91132 0.979344,1.36698 1.058544,1.39606 2.043378,2.85493 3.216302,4.16059 0.360017,0.40076 0.854054,0.88738 1.239621,1.27405 0.730387,0.6438 1.461284,1.16993 2.438658,1.30928 0.640317,0.0377 1.281791,-0.01 1.922708,-0.0105 1.662391,0.16485 3.304082,-0.18414 4.928813,-0.49531 1.652541,-0.26614 3.260082,-0.74054 4.876303,-1.16355 1.730608,-0.45296 1.991158,-0.47734 3.693265,-1.03869 0.61538,-0.20295 1.2214,-0.43326 1.83209,-0.64989 0.61393,-0.25263 1.23606,-0.48618 1.84178,-0.75789 1.86602,-0.83704 3.66646,-1.82975 5.46828,-2.79358 2.98864,-1.59869 0.69638,-0.35937 3.66303,-1.97147 5.38781,-3.14744 -1.49372,0.87954 -6.96984,3.96784 -0.49052,0.27663 0.96003,-0.58902 1.43965,-0.88416 1.2574,-0.77375 2.5125,-1.55104 3.76487,-2.33291 2.45334,-1.4862 4.71337,-3.25561 7.10144,-4.83942 1.61471,-1.02255 3.23081,-2.03859 4.79467,-3.13806 4.38659,-3.12469 8.71103,-8.372 14.22436,-8.28118 0.13768,0.0464 0.2847,0.0711 0.41304,0.13923 0.87717,0.46533 1.41245,2.06626 1.76187,2.92099 0.78497,1.58147 1.44503,3.22126 2.21734,4.80843 0.6815,1.40055 0.8968,1.74279 1.67356,3.14506 1.5618,2.45567 3.21801,4.85053 5.03067,7.12846 0.65784,0.82669 2.00723,2.42991 2.69969,3.25756 1.62087,1.89756 3.41154,3.65783 5.44997,5.1031 0.72876,0.48755 1.25657,0.79049 2.13505,0.75344 0.33023,-0.0555 0.68272,0.004 1.00196,-0.11451 0.13443,-0.0498 0.51909,-0.26997 0.62505,-0.32866 1.76375,0.60306 3.66477,0.51043 5.44506,0.003 0.42991,-0.12261 0.84121,-0.30294 1.26181,-0.45442 0.39592,-0.19237 0.80037,-0.36806 1.18772,-0.5771 0.38345,-0.20693 1.50182,-0.88421 1.12259,-0.66967 -3.24353,1.83502 -6.44828,3.73915 -9.71573,5.53121 -0.39419,0.21619 0.73471,-0.51918 1.08688,-0.79866 0.89914,-0.71355 1.22638,-1.06536 2.05112,-1.8579 2.1574,-2.15426 4.4465,-4.16668 6.58852,-6.33699 1.28116,-1.2699 2.49428,-2.60336 3.70727,-3.93742 0.48343,-0.50982 0.87734,-1.1021 1.36708,-1.60562 0.20613,-0.21193 0.42766,-0.40836 0.63882,-0.61526 0.65986,-0.67092 1.3337,-1.34282 2.10532,-1.88437 0.97597,-0.63557 1.94255,-1.2885 2.86862,-1.9949 4.20679,-3.39222 9.1273,-5.62958 13.82513,-8.34129 0.14781,0.0555 0.32987,0.0568 0.44341,0.16646 0.2808,0.27126 1.05003,1.52763 1.25893,1.83241 0.8774,1.28026 1.84236,2.49527 2.80586,3.71065 1.31522,1.54217 2.86074,2.85975 4.27185,4.30947 0.61445,0.63126 1.04529,1.11841 1.63077,1.76547 0.72181,0.93448 1.61594,1.71928 2.33867,2.65145 0.15598,0.20118 0.79388,1.10845 0.94451,1.32154 0.61771,0.80983 1.36956,1.52003 2.18844,2.12526 0.0303,0.0224 1.24827,0.84528 1.29349,0.87585 0.97172,0.51605 1.89874,1.10344 2.82697,1.69225 0.75675,0.55645 1.17516,0.81495 2.11564,0.647 0.11395,-0.0325 0.23406,-0.0483 0.34185,-0.0976 0.10094,-0.0461 0.71547,-0.46741 0.76251,-0.49951 0.1813,-0.12378 0.73306,-0.48237 0.54253,-0.37334 -3.47297,1.98732 -13.87788,7.97337 -10.3917,6.00927 4.00894,-2.25862 7.97343,-4.59528 11.96014,-6.89293 -19.60657,11.49384 -7.65865,4.45226 -3.23973,1.59918 1.68715,-1.08122 3.26658,-2.31626 4.90392,-3.46848 0.8012,-0.56381 1.2539,-0.85196 2.07632,-1.39268 2.14568,-1.41298 4.34975,-2.74171 6.38234,-4.3191 0.34874,-0.27066 0.68453,-0.55767 1.02679,-0.8365 0.98891,-0.88153 1.96003,-1.79201 2.8221,-2.80034 0.15515,-0.18145 0.85984,-1.06601 1.02288,-1.26998 0.9284,-1.07848 1.78207,-2.21625 2.66777,-3.32899 2.98346,-4.21319 3.61682,-3.14909 12.6034,-7.13952 0.29675,-0.13179 0.42426,0.49409 0.60251,0.76553 0.29786,0.45359 0.86354,1.65918 1.07256,2.08747 0.36105,0.79587 1.11766,2.53206 1.5715,3.22963 0.68138,1.04732 1.79504,2.1378 2.68015,2.99419 4.73675,4.58323 -1.59729,-1.70577 3.20995,3.09625 2.00279,2.08951 3.8712,4.30112 5.81834,6.44135 1.10983,1.21985 1.54393,1.66944 2.66468,2.85727 0.19761,0.21109 2.14878,2.38003 2.54357,2.48037 0.38362,0.0975 1.40933,-0.72121 1.05799,-0.53897 -3.36857,1.74735 -6.64575,3.68468 -10.10973,5.23433 -0.4666,0.20872 0.67357,-0.76904 1.00264,-1.16018 0.30763,-0.36571 0.60481,-0.7401 0.90717,-1.11014 4.1682,-3.78481 2.35501,-2.27498 12.97924,-7.43186 0.39257,-0.19055 0.87525,0.023 1.30564,0.0947 1.14927,0.19136 2.44362,0.73082 3.54121,1.13517 1.53998,0.5795 3.08327,1.17848 4.69773,1.51603 0.48506,0.0451 1.38563,0.243 1.84904,0.0444 0.0928,-0.0397 0.16881,-0.11065 0.25316,-0.16598 2.62472,-3.85131 0.25453,-0.28177 -10.97122,6.16078 -0.13956,0.0801 0.27708,-0.16698 0.39847,-0.27262 0.55933,-0.48675 0.97882,-1.12715 1.4006,-1.72743 1.09894,-1.66078 2.01488,-3.46206 2.72026,-5.32592 0.19439,-0.5136 0.35073,-1.0408 0.52609,-1.56119 0.89406,-3.13089 1.08321,-6.38976 1.13327,-9.62685 -0.0864,-2.00297 -0.11697,-4.00758 -0.20357,-6.01056 -0.0312,-0.62107 -0.0728,-1.2413 -0.12385,-1.86101 0,0 11.84351,-6.04196 11.84351,-6.04196 v 0 c -0.044,0.65934 -0.0794,1.31903 -0.10506,1.97937 -0.0715,2.11318 -0.0921,4.22864 -0.31279,6.33386 -0.20572,3.33167 -0.43538,6.6707 -1.12469,9.94487 -0.28853,1.28952 -0.35084,1.72236 -0.75065,2.94612 -0.44524,1.3627 -1.04595,2.67769 -1.65026,3.97479 -0.35351,0.59713 -0.69713,1.19926 -1.04611,1.79877 -0.0859,0.14753 -0.10189,0.35901 -0.24734,0.44843 -11.39533,7.00752 -7.25857,6.72486 -12.23459,6.98473 -0.80039,-0.0598 -1.58422,-0.22004 -2.32767,-0.5322 -1.45341,-0.58308 -2.84586,-1.30606 -4.30583,-1.8744 -1.02989,-0.37828 -2.08354,-0.80587 -3.20646,-0.76901 -0.36611,0.012 -1.39102,0.37677 -1.08458,0.17617 4.89698,-3.20562 13.64599,-7.98022 8.54339,-5.18403 -0.33067,0.34778 -0.69463,0.66666 -0.99197,1.04336 -0.30099,0.38137 -0.38958,0.95423 -0.79539,1.22134 -3.86604,2.54468 -7.77973,5.04852 -11.9084,7.14044 -0.35308,0.17891 -0.7263,-0.33436 -1.03497,-0.58222 -0.69667,-0.55954 -1.89306,-1.98223 -2.4706,-2.64013 -1.76733,-2.04687 -3.5221,-4.10467 -5.28531,-6.1551 -0.46556,-0.54143 -0.91538,-1.09652 -1.38938,-1.63063 -0.48737,-0.54923 -0.99605,-1.07918 -1.49411,-1.61876 -0.53877,-0.51684 -1.06762,-1.04422 -1.61628,-1.55053 -1.21283,-1.11915 -2.14397,-1.82567 -3.28414,-3.02021 -1.39317,-1.45966 -1.38004,-1.62696 -2.52519,-3.20597 -0.31556,-0.4352 -0.64264,-0.862 -0.96395,-1.293 -0.27184,-0.31167 -0.93642,-1.1793 -1.40931,-1.41011 -0.0811,-0.0396 -0.34006,0.11415 -0.26164,0.0694 3.77237,-2.15377 7.58616,-4.23469 11.35142,-6.40087 0.13059,-0.0751 -0.30091,0.0532 -0.43553,0.12088 -0.15772,0.0793 -0.28485,0.20856 -0.42731,0.31284 -0.9762,1.23094 0.22045,-0.25228 -0.86426,1.00646 -0.67977,0.78881 -1.24798,1.67119 -1.98292,2.41348 -1.31013,1.59444 -2.60178,3.22041 -4.23399,4.50526 -0.37082,0.3118 -0.73353,0.63347 -1.11242,0.9354 -1.95932,1.56148 -4.07455,2.90782 -6.14875,4.30685 -1.12536,0.74852 -2.29132,1.43695 -3.39961,2.21076 -1.29733,0.9058 -2.53981,1.89149 -3.86347,2.76065 -1.684,1.14162 -3.41675,2.19681 -5.13802,3.2801 -0.37363,0.23513 -0.72986,0.49801 -1.1105,0.72158 -3.97416,2.3342 -7.96845,4.634 -11.95267,6.951 3.3729,-1.94476 13.46332,-7.82721 10.11866,-5.83428 -3.94605,2.35127 -7.93993,4.62144 -11.92301,6.90941 -0.40018,0.22987 -0.911,0.46646 -1.3735,0.55523 -0.33909,0.0651 -0.66467,0.0167 -1.00181,-0.0115 -0.34543,-0.0856 -0.53463,-0.11582 -0.86109,-0.26369 -0.56834,-0.25744 -1.04046,-0.67706 -1.56701,-1.0035 -0.89796,-0.60694 -1.80792,-1.19894 -2.65106,-1.88235 -1.30774,-1.02714 -2.69809,-1.96773 -3.64221,-3.37252 -0.16788,-0.21884 -0.33576,-0.43768 -0.50363,-0.65652 -0.14039,-0.20038 -0.27423,-0.40554 -0.4212,-0.60115 -0.69891,-0.93016 -1.472,-1.80612 -2.09036,-2.7966 -0.71765,-0.97035 -1.44936,-1.93121 -2.2526,-2.83363 -1.05533,-1.18565 -2.21654,-2.27451 -3.2348,-3.49421 -0.78348,-0.9325 -1.26616,-1.55635 -2.13984,-2.403 -0.25222,-0.24444 -1.44877,-1.33758 -1.92077,-1.51255 -0.31428,-0.1165 -0.37061,0.1824 -0.43501,0.34425 3.74524,-2.17224 7.49311,-4.33992 11.23571,-6.5167 0.12286,-0.0715 -0.25666,0.12382 -0.37626,0.20061 -0.14038,0.0901 -0.2637,0.2047 -0.4015,0.29868 -0.50134,0.34191 -1.02952,0.64671 -1.52118,1.00383 -0.32935,0.27102 -0.63928,0.56564 -0.97573,0.82778 -0.14553,0.11339 -0.30834,0.20288 -0.45761,0.31127 -0.40949,0.29734 -0.80137,0.61998 -1.22537,0.89796 -0.13358,0.0821 -0.26384,0.16983 -0.40073,0.24628 -0.13295,0.0743 -0.28076,0.12182 -0.40804,0.20541 -0.12822,0.0842 -0.2339,0.19858 -0.35346,0.2947 -0.34966,0.28114 -0.69423,0.56434 -1.02483,0.86859 -0.0214,0.0224 -0.60032,0.62925 -0.62289,0.65014 -0.30539,0.28286 -0.4618,0.34368 -0.76428,0.64704 -0.30529,0.30619 -0.54168,0.67708 -0.8764,0.95628 -0.86435,0.99205 -0.11974,0.16447 -1.07699,1.14903 -1.04631,1.07618 -2.0932,2.1465 -3.2292,3.13114 -0.0926,0.0886 -2.23978,2.14287 -2.29014,2.19221 -0.37928,0.37169 -0.74512,0.75697 -1.12463,1.12844 -3.03218,2.96794 0.84147,-0.8631 -2.12063,1.98155 -0.33749,0.3241 -0.65906,0.66437 -0.98858,0.99655 -0.72883,0.75842 -1.18447,1.25555 -1.95687,1.96822 -0.32561,0.30041 -0.62253,0.64382 -1.00062,0.87471 -3.90757,2.38626 -7.87555,4.67246 -11.83838,6.96578 -0.38302,0.22165 -0.78776,0.40532 -1.19559,0.57708 -0.40447,0.17034 -0.82541,0.29857 -1.23812,0.44786 -1.22529,0.30493 -1.48036,0.41227 -2.7494,0.54872 -1.23875,0.1332 -1.44604,0.049 -2.68197,0.10727 -0.40105,0.0189 -0.80617,0.02 -1.20083,0.0938 -0.24891,0.0465 -0.4749,0.17594 -0.71236,0.26391 -0.7529,0.15341 -1.42878,0.16851 -2.17043,-0.0446 -0.84972,-0.33507 -1.52824,-0.92621 -2.16288,-1.57475 -1.69322,-1.83211 -3.08692,-3.90899 -4.55706,-5.91818 -2.5696,-3.5252 -5.30014,-6.92695 -7.88643,-10.43964 -0.37278,-0.53346 -0.76093,-1.05649 -1.11834,-1.60037 -0.87076,-1.32514 -0.88233,-1.49076 -1.65545,-2.81476 -0.62263,-1.06627 -1.29306,-2.10496 -1.94428,-3.15372 -0.14679,-0.2102 -1.01094,-1.63318 -1.40203,-1.52668 -0.1077,0.0293 -0.1388,0.20424 -0.25916,0.21205 -3.47703,2.88883 -0.295,0.226 10.83331,-6.24574 0.15769,-0.0917 -0.32198,0.17251 -0.47459,0.27244 -0.61691,0.40397 -1.18571,0.88494 -1.7936,1.30182 -1.67194,1.20853 -3.36638,2.38326 -5.19152,3.35376 -0.10063,0.064 -2.33132,1.48089 -2.40295,1.52985 -1.60051,1.09412 -3.0611,2.39257 -4.75178,3.35533 -6.28182,3.90388 -12.7014,7.58812 -19.13892,11.2259 -3.64223,1.94769 -7.254555,4.0045 -11.149694,5.41441 -0.632747,0.21132 -1.261084,0.43631 -1.898228,0.63396 -1.059814,0.32877 -2.667945,0.74588 -3.735559,1.04056 -1.751051,0.48332 -3.496002,0.99374 -5.27493,1.36877 -1.930681,0.42183 -3.872669,0.83232 -5.857937,0.85533 -0.736367,-0.002 -1.489901,-0.0412 -2.170418,-0.35102 -0.993294,-0.50048 -1.816161,-1.23433 -2.469241,-2.13696 -1.39777,-1.92382 -2.69155,-3.92695 -3.85337,-6.00201 -0.27901,-0.50567 -0.56853,-1.00566 -0.83702,-1.51699 -0.62887,-1.19768 -1.19974,-2.42508 -1.82097,-3.62674 -1.0685,-2.06684 -2.19729,-4.10263 -3.2589,-6.17316 -0.91732,-1.69736 -1.77199,-3.42438 -2.89008,-5.00198 -0.36182,-0.51052 -0.92081,-1.25153 -1.41639,-1.69287 -0.0991,-0.0883 -0.22838,-0.13518 -0.34257,-0.20277 -0.25772,0.0585 -0.22225,0.0209 -0.43486,0.18914 -0.074,0.0585 -0.29159,0.23704 -0.20997,0.18974 3.71086,-2.15037 7.40503,-4.32943 11.10292,-6.50202 0.16131,-0.0948 -0.34027,0.16025 -0.49291,0.26842 -0.19001,0.13464 -0.35287,0.30397 -0.52931,0.45596 -1.36142,1.2591 -2.60394,2.66076 -3.63164,4.20689 -0.99011,1.18921 -1.86548,2.47719 -2.97057,3.56609 -4.54803,4.05704 -10.59819,6.40214 -15.53348,9.66179 -1.190069,0.64962 -2.394582,1.26164 -3.603106,1.87606 -0.62643,0.31847 -2.495593,1.2873 -3.088352,1.57739 -0.557485,0.27282 -1.122899,0.52914 -1.684351,0.79371 -1.169506,0.49724 -1.940843,0.8723 -3.141485,1.21848 -1.51202,0.43595 -3.109553,0.45934 -4.635288,0.83197 -1.494094,0.39613 -0.796827,0.18632 -2.160593,0.63737 -0.660305,0.21839 -1.33286,0.4811 -2.015292,0.62632 -0.159027,0.0338 -0.322066,0.0449 -0.4831,0.0673 -0.735126,0.0722 -1.469741,0.092 -2.208284,0.0554 -0.802912,-0.0356 -1.507931,-0.16105 -2.223116,-0.55259 -0.610719,-0.33174 -1.214184,-0.68362 -1.742048,-1.14013 -0.58446,-0.56487 -1.026735,-1.2389 -1.504794,-1.89274 -0.594577,-0.79545 -1.129538,-1.6327 -1.508911,-2.55487 -0.563232,-1.32486 -1.098693,-2.66155 -1.678197,-3.97932 -0.314801,-0.67323 -0.354896,-0.81544 -0.751482,-1.44124 -0.528974,-0.83471 -1.209689,-1.56411 -1.702213,-2.42476 -0.05803,-0.10261 -0.474028,-0.93145 -0.568979,-0.99833 -0.03553,-0.025 0.0094,0.0876 0.02598,0.12776 0.04919,0.11916 0.05692,0.40898 0.17013,0.34731 3.920255,-2.1355 7.714025,-4.49542 11.571036,-6.74313 -0.07265,0.006 -0.15394,-0.0169 -0.217948,0.0179 -0.363302,0.19799 -0.579699,1.15162 -0.83661,1.48196 -0.210248,0.33512 -0.376539,0.70699 -0.604422,1.02978 -0.251666,0.35647 -0.579786,0.66395 -0.774991,1.06222 -0.558215,0.96111 -1.039892,1.96337 -1.623036,2.91049 -0.102087,0.14088 -0.196596,0.28758 -0.306263,0.42265 -0.198297,0.24422 -0.434581,0.45577 -0.634307,0.69883 -0.34273,0.41709 -0.661707,0.8531 -1.067736,1.2159 -3.954664,3.34008 -0.387917,0.37705 -12.3189624,7.20411 -0.204774,0.11717 -0.8276377,0.45315 -0.6241997,0.33367 3.4865129,-2.04771 6.9909341,-4.06489 10.4738981,-6.11864 0.437698,-0.25809 -1.857685,0.89225 -1.242465,0.88318 -0.172688,0.17357 -0.354057,0.33892 -0.518065,0.52072 -0.746868,0.82787 -1.295466,1.82234 -2.112205,2.58812 -0.2743337,0.26161 -0.6033584,0.60599 -0.9354634,0.79982 -4.7106763,2.74936 -8.81057484,5.58135 -13.644456,7.62391 -1.3845801,0.52201 -2.8201106,0.84536 -4.2522416,1.2085 -1.1660154,0.31781 -2.319844,0.6821 -3.500544,0.9435 -1.278431,0.29946 -2.561746,0.64886 -3.879188,0.70915 -0.855805,0.0226 -1.711964,0.0518 -2.568153,0.0404 -0.641717,-0.0181 -1.281678,-0.0961 -1.895528,-0.29288 -0.743029,-0.23984 -1.470642,-0.5159 -2.139878,-0.92518 -0.753713,-0.41791 -1.523634,-0.80815 -2.252901,-1.26829 -0.800367,-0.55024 -1.510901,-1.18724 -2.130237,-1.93844 -0.74731,-0.86429 -1.480518,-1.74298 -2.085964,-2.71545 -0.896147,-1.28211 -1.768242,-2.61432 -3.02852,-3.57482 -1.030637,-0.98117 -2.145274,-1.8685 -3.433666,-2.49286 -0.459162,-0.25643 -0.68985,-0.34423 -1.065845,-0.70264 -0.31696,-0.30215 -0.487279,-0.73949 -0.834268,-1.01704 0,0 11.773883,-6.89913 11.773883,-6.89913 z"
       inkscape:connector-curvature="0" />
  </g>
</svg>
